<svg id="Layer_1" height="512" viewBox="0 0 512 512" width="512" xmlns="http://www.w3.org/2000/svg" data-name="Layer 1"><path d="m174.5137 298.164q19.6164 0 28.1359 7.4033 32.03 19.3082 32.0293 35.9433v10.5479q0 4.1016-3.937 14.3828-14.0979 25.6963-61.25 25.6963a80.4656 80.4656 0 0 1 -27.3-4.5938q-33.3624-15.309-33.362-42.7656 0-12.0689 8.9483-22.9346 22.729-23.6761 56.7357-23.68zm-12.8058-182.554a38.3718 38.3718 0 0 1 12.9378 2.6455q19.8439 8.07 31.4654 33.872 6.2184 17.6984 6.2182 28.6768 0 12.5917-6.2024 25.956-10.0078 17.8828-25.8385 17.8829-11.5332 0-22.4339-7.41-28.436-24.8452-28.4362-58.7822a73.0773 73.0773 0 0 1 2.1089-16.2012q8.9562-26.64 30.1807-26.64zm201.3051-23.55-4.7895 3.9854v59.042h-59.1135l-3.9136 4.6894v16.9805l3.6252 3.6436h59.4017v30.7548l.5965 32.5254h3.3009l.5041.4991h17.3757l3.5338-3.5342.2559-53.2315v-7.0136h58.8125l4.466-3.3633v-17.8276l-4.1216-4.1221h-59.1571v-58.6525l-4.3742-4.375zm-185.7384 0q-38.8919 0-68.1283 25.587-23.6231 24.9891-23.6224 46.833v8.5381q0 9.495 4.9142 24.247 21.4293 47.4243 76.3044 47.4209l3.7094-.5058.9284.5058h-3.4932a16.5186 16.5186 0 0 0 -4.0178 10.6914v3.2676q0 10.2231 6.9192 20.1182l.8122.9912-11.7975.3008q-22.7931 1.2612-35.05 6.2754-18.82 4.9116-41.0417 25.0058-17.6592 19.8311-18.78 37.7139v12.27q.64 7.66 1.0044 7.6562 0 3.0353 10.3723 16.2832 11.4772 12.0073 31.3137 19.127 12.9975 8.1928 47.5 11.7988h25.1828l11.5369-1.251h4.0853l.82-.8134q10.0445-1.7535 25.5669-7.5742 47.2249-23.4814 47.2248-61.1954l-.6089-19.64-4.4215-16.3037q-4.4265-11.9868-20.7736-27.2481-33.71-24.2094-33.71-35.0683 0-7.9571 7.4589-15.4151 39.2487-28.26 39.2489-61.9267 0-31.6948-16.81-49.3692l-3.21-2.5088h15.4462l23.6577-19.3516-3.873-6.46zm78.7254-85.7359c136.8563 0 247.8 110.94 247.8 247.8028 0 136.8554-110.9435 247.7959-247.8 247.7959s-247.8-110.9405-247.8-247.7959c0-136.8624 110.9435-247.8028 247.8-247.8028z" fill-rule="evenodd"/></svg>