<svg id="Layer_1" height="512" viewBox="0 0 512 512" width="512" xmlns="http://www.w3.org/2000/svg" data-name="Layer 1"><path d="m209.2777 206.7026q1.92.6359 77.7929 40.3321 16.9677 8.9721 16.9668 9.2832l-94.76 48.9863v-98.6016zm47.3807-74.2726q-28.1739 0-64.3484.957-60.8249 1.6-69.7889 4.1631-15.6885 2.8814-27.2122 16.01-6.0817 8.3159-11.5254 31.6914-2.88 31.6947-2.88 56.6631 0 77.4784 5.7627 92.5175a145.1478 145.1478 0 0 0 4.8014 17.6094q8.3248 15.0424 27.5318 21.7725l14.0863 1.6q5.4422 1.6 32.6535 2.5566 63.3872 1.6 92.5185 1.6 25.932 0 67.55-.6357 54.4227-1.9174 62.4258-3.8418 13.125-1.9175 21.45-8.9619a47.6936 47.6936 0 0 0 14.4059-20.8086q8.6427-21.1334 8.6431-74.9151v-28.4929a518.6143 518.6143 0 0 0 -3.5213-56.6631q-4.1619-24.0147-13.7659-34.2549-4.8013-5.127-6.7223-5.4414a35.3742 35.3742 0 0 0 -19.209-8.0052q-25.2912-5.1166-132.8556-5.12zm.1589-124.23c136.8564 0 247.8 110.94 247.8 247.8027 0 136.8555-110.9438 247.7959-247.8 247.7959s-247.8-110.94-247.8-247.7959c0-136.8623 110.9438-247.8027 247.8-247.8027z" fill-rule="evenodd"/></svg>