<svg id="Layer_1" height="512" viewBox="0 0 512 512" width="512" xmlns="http://www.w3.org/2000/svg" data-name="Layer 1"><path d="m210.0505 181.403a40.2385 40.2385 0 0 0 -8.4364.9023q-20.4885 5.4243-20.4881 36.7569 0 18.0878 18.9817 45.1992 26.214 36.76 56.9467 51.2217 23.502 10.8486 41.2789 13.8564h3.6153a48.6214 48.6214 0 0 0 20.7907-5.12q18.0763-9.3414 18.0776-28.3213a31.9554 31.9554 0 0 0 -.3008-4.5186q-3.6171-3.0145-17.7768-9.9463-17.1753-8.4287-20.7907-8.4355h-.3008q-2.11 0-9.9437 9.9463-7.834 9.936-10.5453 10.24h-.6024q-4.8206 0-18.9825-8.1347-15.3669-8.7365-28.9246-25.6075-10.5462-14.1606-10.5462-17.4795 0-.2973 7.2316-9.6386 5.7243-6.6344 5.7243-11.1494 0-1.5074-7.834-20.1866-7.5328-16.8778-9.6413-18.081a19.3838 19.3838 0 0 0 -7.5332-1.5039zm38.5675-60.8672h10.5453q62.9718 0 103.0467 47.9131 33.1431 38.2574 33.1431 83.7607a150.7555 150.7555 0 0 1 -5.725 40.0723q-18.38 59.0521-76.5318 84.9707a133.53 133.53 0 0 1 -54.5354 11.45 122.7108 122.7108 0 0 1 -14.7639-.9092q-27.72-2.7071-59.0557-21.69l-51.5233 16.57q1.2062-3.62 12.0526-36.4561l4.8211-12.6533q-.3026 0-8.7381-14.1641a128.4778 128.4778 0 0 1 -15.9687-51.5224 102.8191 102.8191 0 0 1 -1.2057-15.668q0-65.6865 56.9468-107.2627a127.1728 127.1728 0 0 1 67.492-24.4111zm1.2057-25.3067q-66.2875 6.6242-105.4571 48.8086-45.1954 48.2139-45.7982 109.0743 0 37.3652 18.6809 75.0244a23.243 23.243 0 0 1 2.1089 9.3447 28.0953 28.0953 0 0 1 -1.8073 9.9395q-25.9116 75.0278-25.9125 75.6259l1.2057-2.1054c.2008 1.0048.6024 1.5039 1.2049 1.5039q16.27-6.0294 43.6884-14.7657 35.5554-10.8486 43.991-13.5556 39.7724 19.8824 77.4349 19.8857h4.52q44.5929-1.8047 78.94-22.9 69.301-42.7792 77.7366-126.5468v-19.8862q-5.7242-61.77-47.3047-103.0449-40.3748-40.9746-103.6482-46.4024zm6.1763-83.8906c136.8563 0 247.8 110.9473 247.8 247.8028s-110.9437 247.7959-247.8 247.7959-247.8-110.9405-247.8-247.7959 110.9437-247.8028 247.8-247.8028z" fill-rule="evenodd"/></svg>