<svg id="Layer_1" height="512" viewBox="0 0 512 512" width="512" xmlns="http://www.w3.org/2000/svg" data-name="Layer 1"><path d="m199.4958 295.8054h113.9688a18.8551 18.8551 0 0 1 13.4454 5.12q5.4411 5.1269 5.4423 13.4463a19.9245 19.9245 0 0 1 -5.4423 13.9248 17.5216 17.5216 0 0 1 -13.4454 5.92h-113.9688q-8.9645 0-14.4058-5.92a19.921 19.921 0 0 1 -5.4423-13.9248q0-8.3262 5.4423-13.4463 5.4421-5.127 14.4058-5.12zm0-116.8535h56.0242a19.1459 19.1459 0 0 1 19.5277 19.53 17.3609 17.3609 0 0 1 -5.6021 13.4463 19.8765 19.8765 0 0 1 -13.9256 5.12h-56.024q-8.9645 0-14.4058-5.12-5.4423-5.127-5.4423-13.4463a19.1884 19.1884 0 0 1 5.4423-13.9248q5.4421-5.609 14.4058-5.6055zm-1.6-82.9131a101.7591 101.7591 0 0 0 -40.0167 7.8409 99.293 99.293 0 0 0 -32.3332 21.7724 102.3893 102.3893 0 0 0 -21.61 32.4912 100.979 100.979 0 0 0 -7.8439 39.6967v118.1315a100.61 100.61 0 0 0 29.4535 72.03 102.73 102.73 0 0 0 32.3332 21.7725 100.0635 100.0635 0 0 0 40.0167 7.998h116.53a94.7661 94.7661 0 0 0 39.0563-7.998 106.678 106.678 0 0 0 54.1031-53.9492 95.5729 95.5729 0 0 0 8.3227-39.8535v-82.2772l-.96-4.4775-2.24-5.4414-4.4826-3.2061q-2.5609-1.2817-8.4834-1.7568-5.9229-.4819-12.6457-1.1211-6.7227-.6461-12.9652-1.1211-6.2433-.482-9.4438-3.042-4.481-3.8453-5.7627-11.0469-1.2822-7.1982-2.5614-16.4812-2.561-18.252-4.4827-23.2149-1.92-4.9629-5.1218-11.3613a69.6924 69.6924 0 0 0 -14.2461-20.9726 125.3755 125.3755 0 0 0 -20.1677-16.9668 99.6987 99.6987 0 0 0 -22.57-11.3614 166.2049 166.2049 0 0 0 -21.1291-6.084zm58.1042-86.9326c136.8563 0 247.8 110.9405 247.8 247.8028 0 136.8554-110.9439 247.7959-247.8 247.7959s-247.8-110.9405-247.8-247.7959c0-136.8623 110.9437-247.8028 247.8-247.8028z" fill-rule="evenodd"/></svg>