<svg id="Layer_1" height="512" viewBox="0 0 512 512" width="512" xmlns="http://www.w3.org/2000/svg" data-name="Layer 1"><path d="m227.2992 299.5945q59.4939 1.0664 106.0242 29.2509a11.62 11.62 0 0 1 5.3818 7.253 11.4965 11.4965 0 0 1 -1.3452 8.8183 11.779 11.779 0 0 1 -16.1452 4.02q-66.3771-40.1855-164.8185-18.3067a10.893 10.893 0 0 1 -8.6332-1.34 12.0023 12.0023 0 0 1 -5.2688-7.1436 12.2756 12.2756 0 0 1 1.5695-8.9277 11.0861 11.0861 0 0 1 7.1754-5.1406q40.3638-9.126 76.06-8.4834zm.0246-60.7852q67.0093 1.2 127.975 35.1094a15.8213 15.8213 0 0 1 6.6157 9.2695 13.08 13.08 0 0 1 -1.906 10.8281 13.566 13.566 0 0 1 -8.8581 6.6993 14.7328 14.7328 0 0 1 -11.099-1.7911q-39.243-23.2148-90.034-29.1347-50.79-5.9166-96.76 7.26a14.5586 14.5586 0 0 1 -11.212-.8955 13.7385 13.7385 0 0 1 -6.9524-8.709 14.754 14.754 0 0 1 1.1222-11.0537 15.562 15.562 0 0 1 8.5208-7.2529q42.3816-11.0537 82.5877-10.3291zm-5.1051-64.3945q16.2789-.01 33.6289 1.2715 69.4032 5.1269 124.118 35.499a16.9708 16.9708 0 0 1 6.279 23.8847 17.5827 17.5827 0 0 1 -10.8755 7.93 17.3079 17.3079 0 0 1 -13.1182-1.9q-47.9872-26.3423-109.9911-30.7-62.0028-4.3478-107.9719 9.0439a16.5828 16.5828 0 0 1 -13.3423-1.1143 17.3 17.3 0 0 1 -8.41-10.2744 17.5018 17.5018 0 0 1 1.2337-13.3916 17.8432 17.8432 0 0 1 10.4274-8.4834q39.1869-11.72 88.0219-11.7646zm33.0813-90.8633a178.9683 178.9683 0 1 0 178.9667 178.9717 178.9706 178.9706 0 0 0 -178.9667-178.9717zm0-68.8311c136.8559 0 247.8 110.9473 247.8 247.8028s-110.9442 247.7959-247.8 247.7959-247.8-110.9405-247.8-247.7959 110.944-247.8032 247.8-247.8032z" fill-rule="evenodd"/></svg>