<svg id="Layer_1" height="512" viewBox="0 0 512 512" width="512" xmlns="http://www.w3.org/2000/svg" data-name="Layer 1"><path d="m253.8081 9.1062c-136.1712 0-247.0081 110.8379-247.0081 247.0098 0 137.751 110.8371 248.5889 247.0083 248.5889a248.0036 248.0036 0 0 0 248.5917-248.5889c0-136.1719-110.8372-247.01-248.5918-247.01zm152.0052 345.1807c-3.1668 23.748-6.3335 45.917-7.9169 69.665-1.5834 9.502-1.5834 9.502-9.5 9.502-68.0856-1.586-136.1713-3.1651-204.2568-3.1651-23.7508 0-49.085 1.5791-72.8358 3.1651h-11.0838v-22.169c9.5005-1.5791 19.0007-3.165 26.9178-4.7509 4.75-1.5791 7.9169-1.5791 11.0836-3.1651 6.3335-3.165 9.5-6.33 9.5-12.667 1.5834-3.165 1.5834-4.7509 1.5834-7.916 0-50.668 1.5833-101.3359 1.5833-152.0039 0-31.6709-1.5833-63.3349-1.5833-95.0058 0-17.418-4.75-23.7481-22.1673-26.92a93.3233 93.3233 0 0 1 -22.1674-3.165c-1.5834-1.5791-4.75-3.165-4.75-4.751v-17.418c96.5867 1.586 194.7567 6.337 291.3432-3.165-1.5834 33.25-3.1667 66.5068-6.3335 99.7568-4.75 0-11.0836 1.5791-15.834 0-1.5833 0-4.75-3.1718-4.75-4.7509-3.1667-9.502-4.75-20.583-7.9168-30.085-1.5834-6.3369-4.75-11.081-7.9169-17.418-4.75-11.081-14.2506-17.4179-28.501-17.4179h-106.0876c-7.9171 0-7.9171 0-7.9171 9.5019v123.5049c14.2506 0 30.0846 1.5791 44.3349 0 9.5 0 19.0007 0 28.501-1.5859 12.6672-1.5791 17.4173-4.751 20.5841-17.418 1.5833-9.502 4.75-18.9971 6.3335-28.499 1.5833-3.1651 3.1667-4.751 6.3335-4.751h15.8339v120.34c0 4.751-1.5834 6.33-6.3335 6.33-15.8339 0-15.8339 1.586-19.0007-14.2461-1.5834-4.751-3.1667-11.0879-4.75-15.8388-3.1668-12.667-12.6672-17.418-23.7508-17.418-22.1675-1.5791-44.3349-1.5791-66.5024-1.5791h-1.5834v7.916c-1.5833 33.25-1.5833 64.9209-1.5833 98.1709 0 20.583 7.9171 30.085 28.5009 31.6641 31.6679 0 63.3356 0 95.0033-1.5791 19.0007 0 31.6677-11.0879 39.5846-28.5059 6.3337-12.667 12.6672-26.9131 19.0007-41.166 1.5834-6.33 4.75-7.916 12.6672-7.916h9.5c-1.5833 9.5019-1.5833 19.0039-3.1667 26.92z" fill-rule="evenodd"/></svg>