<svg id="Layer_1" height="512" viewBox="0 0 512 512" width="512" xmlns="http://www.w3.org/2000/svg" data-name="Layer 1"><path d="m258.4659 290.4529q-14.899 6.9316-40.1941 30.1465-27.72 24.5991-42.273 32.2246-4.8513-2.0815-15.5923-9.7a110.4459 110.4459 0 0 0 -16.6314-9.3584v24.9512q15.9384 8.3158 56.1328 32.915 35.3421 21.8305 56.479 33.6123 15.94-9.7 55.0938-34.3027 35.3419-20.7949 55.7859-32.2246v-24.9514l-34.3031 20.7881q-10.7417-9.7-37.0752-31.5273-24.9477-20.4463-37.4224-32.5733zm-2.079-153.501q20.4436 13.8633 109.1477 68.2637-19.4029 15.2475-54.0539 35.3418-44.0054 26.6806-55.0938 34.3027-21.1359-11.7817-56.479-33.6123-39.5012-24.9375-56.1328-34.3027 60.637-39.498 112.6118-69.9932zm-81.7741-65.4882q-6.5836 4.5117-107.0683 71.0322 11.4355 13.8633 36.7291 33.2641 28.0662 21.4922 38.1146 31.1855-67.22 53.71-76.5762 62.0225 19.4043 10.746 56.8259 36.3877 36.0362 24.25 55.44 35.3418 11.4349-9.3619 39.1545-32.9151 24.2556-20.4462 39.1546-31.1855 67.5667 57.1654 79.0016 64.1006 59.5983-40.5439 108.4547-71.7295-6.2376-6.5831-37.4216-31.5274-37.4223-30.4952-37.4225-32.2246 1.3869 0 19.0578-14.5537 34.9959-27.378 55.7863-48.166-51.6284-32.2178-108.4547-71.0322h-3.4646q-13.5141 12.13-37.769 32.2246-26.6794 21.482-37.7681 32.2246-35.3433-26.6807-76.5762-64.4492zm81.3872-62.3575c136.8559 0 247.8 110.9473 247.8 247.8028s-110.9439 247.7959-247.8 247.7959-247.8-110.9405-247.8-247.7959 110.9439-247.8028 247.8-247.8028z" fill-rule="evenodd"/></svg>