<svg id="Layer_1" height="512" viewBox="0 0 512 512" width="512" xmlns="http://www.w3.org/2000/svg" data-name="Layer 1"><path d="m252.957 12.2264c-136.1714 0-247.0085 110.8379-247.0085 247.01 0 137.751 110.8371 248.5889 247.0085 248.5889a248.0035 248.0035 0 0 0 248.5915-248.5891c0-136.1719-110.8371-247.01-248.5915-247.01zm-207.4237 315.0957a1.55 1.55 0 0 1 -1.5834 1.5791c-1.5833 0-1.5833 0-1.5833-1.5791l-3.1666-23.7549 3.1668-23.748c0-1.5859 0-1.5859 1.5833-1.5859a1.5515 1.5515 0 0 1 1.5834 1.5859l3.1665 23.748-3.1668 23.7549zm15.8338 14.2461a1.5516 1.5516 0 0 1 -1.5834 1.586c-1.5834 0-1.5834 0-1.5834-1.586l-4.75-38.001 4.75-38.0009c0-1.5791 0-1.5791 1.5834-1.5791a1.55 1.55 0 0 1 1.5834 1.5791l4.75 38.0009zm17.4171 6.3369c0 1.586-1.5834 1.586-3.1668 1.586a1.5515 1.5515 0 0 1 -1.5833-1.586l-3.1668-44.3379 3.1668-45.9172a1.5494 1.5494 0 0 1 1.5833-1.5791c1.5834 0 3.1668 0 3.1668 1.5791l4.75 45.9169-4.75 44.3379zm17.4175 1.586c0 1.5791-1.5834 1.5791-3.1667 1.5791s-1.5834 0-1.5834-1.5791l-4.75-45.9239 4.75-47.496c0-1.586 0-1.586 1.5834-1.586s3.1667 0 3.1667 1.586l3.1668 47.496zm17.4171 0a3.1668 3.1668 0 0 1 -6.3335 0l-3.1667-45.9239 3.1667-42.7519a3.1668 3.1668 0 0 1 6.3335 0l3.1668 42.7519zm17.4171 0a3.1668 3.1668 0 0 1 -6.3335 0l-3.1667-45.9239 3.1667-71.2509a3.1668 3.1668 0 0 1 6.3335 0l3.1668 71.2509zm17.4176 0a3.4073 3.4073 0 0 1 -3.1668 3.165c-1.5833 0-3.1667-1.5859-4.75-3.165l-3.1668-45.9239 3.1668-87.083c1.5838-1.5859 3.1672-3.165 4.75-3.165a3.4018 3.4018 0 0 1 3.1668 3.165l3.1667 87.083zm19.0005 0c0 1.5791-3.1668 3.165-4.75 3.165a3.4073 3.4073 0 0 1 -3.1668-3.165l-3.1672-45.9239 3.1667-94.999a3.4083 3.4083 0 0 1 3.1668-3.1719c1.5833 0 4.75 1.586 4.75 3.1719l3.1667 94.999-3.1667 45.9239zm17.4171-1.586q0 4.7476-4.75 4.751-2.3751 0-4.75-4.751l-1.5833-44.3379 1.5833-98.1709c1.5834-1.5791 3.1668-3.165 4.75-3.165 3.1667 0 4.75 1.5859 4.75 3.165l3.1667 98.1709zm19.0009 0q-2.3751 4.7476-4.75 4.751-4.75 0-4.75-4.751l-3.1672-44.3379 3.1672-94.999q0-4.7578 4.75-4.751 2.3751 0 4.75 4.751l1.5834 94.999zm17.4171 0q0 4.7476-4.75 4.751-4.75 0-4.75-4.751l-3.1668-44.3379 3.1668-91.8339q0-4.7477 4.75-4.751 4.75 0 4.75 4.751l3.1668 91.8339zm19.0005-4.7509v4.7509a5.5109 5.5109 0 0 1 -1.5834 3.1651c-1.5833 1.5859-3.1667 1.5859-4.75 1.5859s-3.1667 0-3.1667-1.5859c-1.5834-1.5791-1.5834-1.5791-1.5834-3.1651l-1.5834-44.3379 1.5834-107.666v-1.5859c0-1.5859 1.5834-3.165 3.1667-4.751h4.75c1.5833 1.586 3.1667 3.1651 3.1667 4.751l1.5834 109.2519-1.5834 39.587zm17.4175 3.165c0 3.1719-1.5833 6.3369-4.75 6.3369a6.81 6.81 0 0 1 -6.3339-6.3369l-1.5834-20.583v-22.169l1.5834-118.7539c0-1.5791 1.5834-3.165 1.5834-4.7509 1.5838 0 3.1672-1.5791 4.75-1.5791a4.91 4.91 0 0 1 3.1668 1.5791c1.5833 0 1.5833 3.1718 1.5833 4.7509l3.1668 118.7539-3.1668 42.752zm158.3387 6.3369h-147.255c-3.1668 0-4.75-3.165-4.75-6.3369v-167.8359c0-3.1651 0-4.751 4.75-6.337 9.5-3.165 22.1672-6.33 33.2512-6.33 49.0846 0 88.6694 38.0009 93.42 85.5039 6.3335-3.1719 12.667-3.1719 20.5843-3.1719 28.5008 0 52.2518 22.1689 52.2518 52.2539 0 28.499-23.751 52.2539-52.2518 52.2539z" fill-rule="evenodd"/></svg>