<svg id="Layer_1" height="512" viewBox="0 0 512 512" width="512" xmlns="http://www.w3.org/2000/svg" data-name="Layer 1"><path d="m255.2085 12.2264c-136.1714 0-247.0085 110.8379-247.0085 247.0098 0 137.751 110.8371 248.5889 247.0085 248.5889a248.0035 248.0035 0 0 0 248.5915-248.5889c0-136.1719-110.8371-247.01-248.5915-247.01zm175.7558 166.2569c-1.5833 33.25-25.3344 80.7529-71.2522 139.3369-47.5017 63.3349-88.67 93.42-121.9211 93.42-19 0-36.4176-19.0039-50.6684-57.0049-9.5-33.25-19.0005-68.0859-28.5007-102.915q-16.6256-57.0015-33.2513-57.0049c-3.1668 0-12.667 6.3369-28.5008 17.418l-15.8341-22.169c17.4175-14.2461 33.2513-30.0849 50.6684-45.917 23.751-18.997 41.1681-30.0849 52.2517-31.6709 26.9178-1.5791 44.3349 17.418 50.6684 57.0049q9.5 64.128 14.2508 80.7529c7.9169 34.836 15.8338 52.2539 25.334 52.2539 7.9169 0 19-11.0878 33.2513-34.8359q21.3756-33.2533 23.7506-52.2539c1.5834-20.583-6.3335-30.085-23.7506-30.085a60.315 60.315 0 0 0 -26.9178 6.337c17.4171-57.0049 50.6684-83.918 99.7534-82.3389 36.4181 0 52.2518 23.7549 50.6684 69.6719z" fill-rule="evenodd"/></svg>