<svg id="Layer_1" height="512" viewBox="0 0 512 512" width="512" xmlns="http://www.w3.org/2000/svg" data-name="Layer 1"><path d="m252.1369 154.4515q39.47 0 64.1779 23.81 13.2558 9.6387 13.257 22.8935a17.68 17.68 0 0 1 -6.93 14.1641q-5.4237 4.5221-10.8465 4.5186-5.1225 0-10.697-4.5186-5.5743-4.5219-12.3534-10.3974a131.658 131.658 0 0 0 -16.12-11.751 39.3212 39.3212 0 0 0 -21.3926-5.8721 40.58 40.58 0 0 0 -21.0913 5.7214q-14.1607 8.439-14.1611 19.2842 0 4.2142 3.3146 10.0966 3.314 5.8755 18.2289 9.4883 14.915 3.62 29.6782 6.6309 54.8365 11.4433 68.0949 43.9892a41.8041 41.8041 0 0 1 3.6158 17.1719q0 4.8193-2.5614 14.0137-2.5608 9.1875-12.9562 20.4873a82.4349 82.4349 0 0 1 -25.0084 18.3818 77.2375 77.2375 0 0 1 -31.1847 7.6836q-7.5321.5947-14.4623.6016-22.2972 0-38.5667-5.8789-16.2709-5.8755-30.1306-20.0362-12.3534-10.8486-12.3534-23.8027 0-9.936 6.0259-14.7656a21.1486 21.1486 0 0 1 13.5586-4.8193q12.0522 0 26.2141 18.3818a31.2211 31.2211 0 0 0 7.5319 6.6308 119.8036 119.8036 0 0 0 11.1486 5.4209 73.9307 73.9307 0 0 0 23.5011 3.917q17.4759 0 27.7206-11.45 6.3273-6.624 6.3271-12.3525a47.4162 47.4162 0 0 0 -.6024-5.2705q-.6032-4.0709-7.5333-8.5928-12.052-9.3412-35.5532-12.0517-32.5409-5.7217-52.427-18.6758-23.8032-15.0732-23.8031-38.2676l.6024-5.12q2.411-27.7266 20.3382-42.1846a74.4969 74.4969 0 0 1 40.8272-16.57 148.5464 148.5464 0 0 1 16.5716-.9092zm-65.0824-46.3955q-33.7456 0-58 24.4043t-24.2552 58.7549a83.0665 83.0665 0 0 0 13.5583 45.7939 85.6341 85.6341 0 0 0 -2.7109 21.3965 131.9988 131.9988 0 0 0 11.1477 54.086 147.0635 147.0635 0 0 0 29.6782 43.9892 133.94 133.94 0 0 0 43.8406 29.5244 137.1237 137.1237 0 0 0 53.933 10.6983 180.18 180.18 0 0 0 25.6108-1.8115 80.14 80.14 0 0 0 43.0865 12.3593q33.7468 0 58.3024-24.4111 24.5556-24.4042 24.5556-59.0557a78.256 78.256 0 0 0 -14.7635-46.3955 119.0542 119.0542 0 0 0 1.5064-18.9834 132.2941 132.2941 0 0 0 -11.1481-53.9356q-21.9963-51.2181-72.9155-73.2128a135.7334 135.7334 0 0 0 -54.235-11.1494q-16.8722 0-22.5975 1.2031a79.53 79.53 0 0 0 -44.5938-13.2549zm68.2455-98.2051c136.8559 0 247.8 110.9473 247.8 247.8028s-110.9439 247.7963-247.8 247.7963-247.8-110.9409-247.8-247.7963 110.9439-247.8028 247.8-247.8028z" fill-rule="evenodd"/></svg>