<svg id="Layer_1" height="512" viewBox="0 0 512 512" width="512" xmlns="http://www.w3.org/2000/svg" data-name="Layer 1"><path d="m260.2453 210.2259a46.8542 46.8542 0 0 1 33.6931 13.7334q14.2113 13.73 14.2115 34.1729 0 20.436-14.2115 34.0088a47.1269 47.1269 0 0 1 -33.6931 13.5761q-20.4379 0-34.49-13.5761t-14.0525-34.0088q0-20.4464 14.0525-34.1729 14.0505-13.73 34.49-13.7334zm-127.7448 0h63.5528a111.1293 111.1293 0 0 0 -11.4959 22.3541 71.6022 71.6022 0 0 0 -4.472 25.5527 75.3875 75.3875 0 0 0 6.3869 30.9736 86.0186 86.0186 0 0 0 16.9271 25.2315 77.2828 77.2828 0 0 0 25.5484 17.247 79.1249 79.1249 0 0 0 31.2975 6.3848 77.4912 77.4912 0 0 0 56.0487-23.6318 87.7039 87.7039 0 0 0 16.766-25.2315 75.3671 75.3671 0 0 0 6.3878-30.9736 71.6087 71.6087 0 0 0 -4.4716-25.5527 135.693 135.693 0 0 0 -10.8584-22.3536h63.8722v127.7427q0 19.4824-14.2115 33.6943a46.7722 46.7722 0 0 1 -34.3305 14.212h-159.3626q-20.1193 0-33.852-14.212a46.8531 46.8531 0 0 1 -13.7329-33.6943zm191.6181-63.875v31.6162h31.6167v-31.6162zm-144.0332-15.9687h159.3624a47.6146 47.6146 0 0 1 34.3305 13.7334q14.2139 13.74 14.2115 33.8515v15.9688h-80.4782a123.1415 123.1415 0 0 0 -22.3553-11.4912 68.0084 68.0084 0 0 0 -24.911-4.4776 72.2582 72.2582 0 0 0 -25.2289 4.4776 107.762 107.762 0 0 0 -22.6756 11.4912h-79.84v-15.9688q0-20.1181 13.7329-33.8515 13.7319-13.73 33.852-13.7334zm-16.2875-32.2522q-26.5069 0-45.03 18.5254-18.5217 18.5185-18.5228 45.0283v191.9329q0 26.8344 18.5228 45.1923 18.5231 18.3648 45.03 18.3614h191.9365q26.8268 0 45.19-18.3614 18.3627-18.3646 18.3626-45.1923v-191.9327q0-26.5063-18.3626-45.0283-18.3636-18.5288-45.19-18.5254zm95.9685-88.2791c136.8559 0 247.8 110.9405 247.8 247.8028 0 136.8554-110.9438 247.7959-247.8 247.7959s-247.8-110.94-247.8-247.7959c0-136.8623 110.9439-247.8028 247.8-247.8028z" fill-rule="evenodd"/></svg>