<svg id="Layer_1" height="512" viewBox="0 0 512 512" width="512" xmlns="http://www.w3.org/2000/svg" data-name="Layer 1"><path d="m255.2079 9.8509c-136.171 0-247.0079 110.8379-247.0079 247.0098 0 137.751 110.8369 248.5893 247.0079 248.5893a248.0036 248.0036 0 0 0 248.5921-248.5893c0-136.1719-110.8371-247.01-248.5923-247.01zm-150.4214 316.6748c-3.1667-23.748-1.5834-55.4189 1.5834-68.0859 3.1667-14.2461 11.0836-17.4111 25.334-12.667 25.3339 11.0879 52.2522 22.169 79.17 31.6709 7.9169 4.751 11.0836 9.502 11.0836 18.9971 0 7.9228-4.75 12.667-12.667 15.8388-28.5007 7.9161-55.4189 17.418-83.92 26.9131-11.0837 3.1719-17.4172-1.5791-20.5839-12.667zm150.4214 115.5889c0 11.0879-6.3335 17.418-17.4171 15.832-23.7506-1.5791-47.5012-11.081-68.086-25.3339-9.5-6.33-9.5-14.2461-3.1667-22.1622 19.0013-23.7548 39.5852-45.9238 58.5857-68.0859 4.75-6.3369 12.667-7.9228 20.5838-4.751 6.3335 1.5791 9.5 7.916 9.5 15.8321v44.3379 44.331zm0-205.8369c-3.1668 12.667-15.8338 15.832-25.334 7.916a24.6125 24.6125 0 0 1 -9.5-12.667c-26.9174-41.1728-53.8356-83.9179-80.753-126.67-7.9168-11.0879-6.3335-19.0039 6.3335-25.334a212.3646 212.3646 0 0 1 82.3363-22.1689c12.667-1.586 17.4171 3.165 19 17.4179 3.1668 47.503 6.3335 96.585 9.5 145.667 0 4.751 0 11.0879-1.5834 15.8389zm33.2521 18.9971q26.1257-35.6222 52.2513-71.251c6.3335-11.0811 15.8338-11.0811 25.334-3.165a139.1151 139.1151 0 0 1 38.0019 56.998c4.75 12.667 0 19.0039-12.667 22.1689-26.9183 7.9161-55.419 14.253-83.92 22.169h-4.75c-7.9169 0-12.667-3.1651-15.8338-9.502-3.1667-6.33-3.1667-12.667 1.5834-17.4179zm115.5868 117.1752c-9.5 18.997-22.1681 34.8291-38.0019 49.082-3.1667 1.5859-4.75 3.165-7.9168 4.751-7.9169 3.165-14.25 3.165-17.4172-4.751-17.4171-25.334-33.2508-52.2539-50.6679-79.167-3.1668-6.3369-1.5834-12.667 3.1667-19.0039 4.75-6.33 11.0836-7.916 17.4171-4.751 30.0841 9.502 58.5849 19.0039 87.0865 28.5059 6.3335 1.5791 9.5 6.33 11.0836 14.2461-1.5834 3.165-3.1668 7.916-4.75 11.0879z" fill-rule="evenodd"/></svg>