<svg id="Layer_1" height="512" viewBox="0 0 512 512" width="512" xmlns="http://www.w3.org/2000/svg" data-name="Layer 1"><path d="m256 5.2209c-136.8068 0-247.8 110.9951-247.8 247.8027 0 136.8008 110.9932 247.7964 247.8 247.7964s247.8-110.9956 247.8-247.7964c0-136.8076-110.9941-247.8027-247.8-247.8027zm-27.3617 247.8027a42.372 42.372 0 0 1 -2.5806 14.4512l69.1772 33.5576a42.49 42.49 0 0 1 32.0075-14.458c23.7472 0 43.3647 19.6191 43.3647 43.8867a43.6223 43.6223 0 0 1 -43.3647 43.36c-24.2641 0-43.8816-19.6123-43.8816-43.36a26.1175 26.1175 0 0 1 1.0331-6.7129l-73.8239-35.622a43.9817 43.9817 0 0 1 -25.8125 8.2578 43.3638 43.3638 0 1 1 0-86.7276 43.9817 43.9817 0 0 1 25.8125 8.2578l73.8238-35.622a26.11 26.11 0 0 1 -1.0331-6.7061c0-23.748 19.6175-43.3672 43.8816-43.3672a43.6282 43.6282 0 0 1 43.3647 43.3672c0 24.2608-19.6175 43.88-43.3647 43.88a42.49 42.49 0 0 1 -32.0075-14.458l-69.1772 33.5576a42.3811 42.3811 0 0 1 2.5806 14.458z" fill-rule="evenodd"/></svg>