<svg id="Layer_1" height="512" viewBox="0 0 512 512" width="512" xmlns="http://www.w3.org/2000/svg" data-name="Layer 1"><path d="m431.6793 83.8014c-46.9142-46.915-109.4656-72.1738-175.6255-72.1738s-128.7121 25.2588-175.6255 72.1738-72.1746 109.4639-72.1746 175.6286c0 66.1582 25.2613 128.707 72.1746 175.622s109.4648 72.1738 175.6255 72.1738 128.7113-25.2587 175.6255-72.1738 72.1747-109.4634 72.1747-175.622c0-66.1651-25.2614-128.7139-72.1747-175.629zm-238.1769 299.5235c-67.363 0-122.6973-55.33-122.6973-123.8945 0-68.5713 55.3343-123.9014 122.6973-123.9014 33.6816 0 63.7546 13.2275 87.8128 36.0869a15.2445 15.2445 0 0 1 0 21.6494c-6.0148 4.8125-15.6381 4.8125-20.45 0a94.0729 94.0729 0 1 0 -67.3631 159.9883c46.9134 0 86.61-33.6807 93.8267-79.3926h-93.8264a14.4341 14.4341 0 1 1 0-28.8681h109.4648a14.628 14.628 0 0 1 14.4349 14.4371 123.72 123.72 0 0 1 -123.9 123.8945zm233.3653-109.4639h-16.8412v16.8438c0 8.4218-6.0148 14.4306-14.4349 14.4306a14.622 14.622 0 0 1 -14.435-14.4306v-16.8438h-15.638c-8.42 0-15.6381-6.0156-15.6381-14.4306 0-8.4219 7.2179-14.4375 15.6381-14.4375h15.638v-16.8438a14.6267 14.6267 0 0 1 14.435-14.4307c8.42 0 14.4349 6.0157 14.4349 14.4307v16.8438h16.8412c8.42 0 14.4349 6.0156 14.4349 14.4375 0 8.415-6.0148 14.4306-14.4349 14.4306z" fill-rule="evenodd"/></svg>