<svg id="Layer_1" height="512" viewBox="0 0 512 512" width="512" xmlns="http://www.w3.org/2000/svg" data-name="Layer 1"><path d="m356.1918 265.8339a12.02 12.02 0 0 0 -9.1978 3.8486 13.1069 13.1069 0 0 0 -3.5846 9.2833 12.7229 12.7229 0 0 0 3.5846 8.9687 12.0194 12.0194 0 0 0 9.1978 3.8486 11.8154 11.8154 0 0 0 8.73-3.8486 12.4441 12.4441 0 0 0 3.741-8.9687 12.8093 12.8093 0 0 0 -3.741-9.2833 11.8158 11.8158 0 0 0 -8.73-3.8486zm-199.8572 0a11.6643 11.6643 0 0 0 -8.8859 3.8486 13.1035 13.1035 0 0 0 -3.5846 9.2833 12.72 12.72 0 0 0 3.5846 8.9687 11.664 11.664 0 0 0 8.8859 3.8486 12.1565 12.1565 0 0 0 9.0422-3.8486 12.4441 12.4441 0 0 0 3.741-8.9687 12.8093 12.8093 0 0 0 -3.741-9.2833 12.1569 12.1569 0 0 0 -9.0422-3.8486zm199.8572-12.8105q9.6655 0 17.3043 7.5263a24.86 24.86 0 0 1 7.6391 18.4161 24.1379 24.1379 0 0 1 -7.6391 17.78q-7.6392 7.5264-17.3043 7.5264a23.9175 23.9175 0 0 1 -18.0837-7.5264 24.9145 24.9145 0 0 1 -7.1726-17.78 25.6924 25.6924 0 0 1 7.1726-18.4161 23.9178 23.9178 0 0 1 18.0837-7.5263zm-199.8572 0a24.0608 24.0608 0 0 1 17.9281 7.5263 25.4008 25.4008 0 0 1 7.3264 18.4161 24.6419 24.6419 0 0 1 -7.3264 17.78 24.0606 24.0606 0 0 1 -17.9281 7.5264 23.7062 23.7062 0 0 1 -17.6162-7.5264 24.6436 24.6436 0 0 1 -7.3281-17.78 25.4023 25.4023 0 0 1 7.3281-18.4161 23.7065 23.7065 0 0 1 17.6162-7.5263zm199.8572-12.8174a35.9681 35.9681 0 0 0 -26.814 11.2109q-10.9126 11.2177-10.9127 27.5489a37.7518 37.7518 0 0 0 10.9127 27.07 35.7147 35.7147 0 0 0 26.814 11.375q14.9655 0 26.0338-11.375a37.471 37.471 0 0 0 11.07-27.07q0-16.3345-11.07-27.5489-11.0679-11.2075-26.0338-11.2109zm-199.8572 0a35.6084 35.6084 0 0 0 -26.5012 11.2109q-10.9128 11.2177-10.9136 27.5489a37.7522 37.7522 0 0 0 10.9136 27.07 36.5595 36.5595 0 0 0 53.0033 0 37.7525 37.7525 0 0 0 10.9135-27.07q0-16.3345-10.9135-27.5489a35.61 35.61 0 0 0 -26.5021-11.2109zm199.8572-25.6279q24.9426 0 43.6508 18.7441 18.7071 18.7339 18.7066 45.6436 0 26.27-18.2391 45.0078-18.2392 18.7442-44.1183 18.7441-26.191 0-44.4294-18.7441a62.2211 62.2211 0 0 1 -18.2408-45.0078q0-37.4781 33.9866-57.34a58.4257 58.4257 0 0 1 28.6836-7.0478zm-199.8572 0a53.2775 53.2775 0 0 1 26.814 6.7334q35.8566 19.2158 35.8562 57.6543a61.9433 61.9433 0 0 1 -18.3964 45.0078q-18.3942 18.7442-44.2738 18.7441-26.19 0-44.2738-18.7441-18.0828-18.7336-18.0845-45.0078 0-28.506 20.8906-47.4073 17.15-16.98 41.4677-16.98zm99.7722-64.0664q52.0693 0 87.9255 29.1552l12.1595 8.9688q-32.1128 0-60.487 30.4336-39.5967 42.5947-39.598 98.3418 0-55.74-40.22-98.6631-27.4368-30.1158-59.5521-30.1123l11.8484-8.9688q35.8541-29.1517 87.9238-29.1552zm0-13.1319q-74.5178 0-124.7148 51.2559h-62.3583q2.1828 20.18 24.9426 25.9424-24.9412 35.2427-24.9426 64.3877 0 39.4058 24.4761 64.5517 24.4748 25.1425 62.8248 25.1425 43.6509 0 74.5177-38.4385l25.2545 38.4385 24.9432-38.4384q31.18 38.4418 75.1415 38.4385 38.3508 0 62.67-25.1426 24.3185-25.1527 24.3189-64.5517 0-17.6163-9.9771-38.4385a221.5439 221.5439 0 0 0 -14.6545-25.9492q18.084-4.7989 23.073-18.2588l1.5586-7.6836h-62.0452q-50.198-51.2594-125.0284-51.2559zm.0009-132.1592c136.8563 0 247.8 110.9405 247.8 247.8028 0 136.8554-110.9438 247.7959-247.8 247.7959s-247.8-110.94-247.8-247.7959c0-136.8623 110.9438-247.8028 247.8-247.8028z" fill-rule="evenodd"/></svg>