<svg id="Layer_1" height="512" viewBox="0 0 512 512" width="512" xmlns="http://www.w3.org/2000/svg" data-name="Layer 1"><path d="m382.1265 177.235q16.8291 14.817 16.8292 43.087a166.9251 166.9251 0 0 1 -1.3457 19.858q-9.0876 37.7036-36.6894 58.0644-27.6009 20.3643-63.6178 20.3643h-51.1628l-17.5026 79.4336h-71.0236l6.7325-29.9551h42.7485l16.8293-79.4336h32.65q92.5659 0 123.1956-96.94a114.4068 114.4068 0 0 0 2.3567-14.4786zm-132.284 0q17.5035 0 17.5026 1.0118l-.3367 1.6816q0 5.7217-6.7317 11.4434-5.7216 4.3783-11.1084 4.375h-4.0383zm-18.85-23.5634-15.4835 65.6384h33.66a38.5572 38.5572 0 0 0 28.2743-11.7783q13.4646-12.7968 13.4642-29.62 0-12.4586-9.425-19.5234a25.3616 25.3616 0 0 0 -15.4834-4.7168zm-60.2511-48.4668h121.1755a78.8442 78.8442 0 0 1 33.4931 7.7382 59.21 59.21 0 0 1 26.4226 24.24q7.0689 12.4482 7.0684 30.9668a77.7512 77.7512 0 0 1 -2.3558 18.1767q-6.7317 29.2853-24.9085 48.4668-30.2952 30.3-74.052 30.2969h-52.1732l-17.5034 79.4336h-71.0229l53.8561-239.3193zm-19.1868-23.5635-64.29 286.4463h52.8454l-12.1175 53.5185h119.493l17.5035-79.4336h32.3126q92.9029 0 123.5331-97.2822a132.7121 132.7121 0 0 0 2.6925-25.2451q0-49.1367-43.4219-72.3652-5.0475-21.8818-15.4834-32.6485-28.9469-32.9868-72.7053-32.99zm104.6069-70.0137c136.8555 0 247.8 110.9473 247.8 247.8028s-110.9447 247.7958-247.8 247.7958-247.8-110.94-247.8-247.7958 110.9439-247.8028 247.8-247.8028z" fill-rule="evenodd"/></svg>