<svg id="Layer_1" height="512" viewBox="0 0 512 512" width="512" xmlns="http://www.w3.org/2000/svg" data-name="Layer 1"><path d="m164.8128 249.7349 28.9043 59.2744-64.3927 17.1924s-.4887-1.4629-1.4641-4.3887a43.6087 43.6087 0 0 1 -1.6462-12.2568 55.4653 55.4653 0 0 1 2.9273-17.7461q3.1095-9.8745 11.5247-20.6719 8.415-10.7871 24.1467-21.4033zm18.294-92.9278-60.0031 7.3145 24.5135 50.1284q-37.3188 16.0986-55.7951 38.4111-18.476 22.3229-23.5981 46.1016t-2.744 44.6382q2.3776 20.8461 6.9521 34.0224 4.5719 13.1767 4.5731 13.1729l193.1787-55.98-53.0518-107.9321q36.2215-9.8745 67.5038-7.3145 31.2818 2.5635 55.4285 11.1563 24.1473 8.6029 37.8673 16.6523t13.72 8.0459l-65.49 17.5615-18.66-35.123q-27.0754-5.4858-59.6373-.7314l44.6365 91.1025 192.813-55.61s-4.7566-5.4277-14.2692-16.2832-25.1232-22.3808-46.8313-34.5761-50.3672-21.28-85.9786-27.2549-79.3945-4.8194-131.3478 3.4726h-2.194a2.791 2.791 0 0 1 -1.0974.3692zm74.2132-148.6064c136.8565 0 247.8 110.94 247.8 247.8027 0 136.8555-110.9437 247.7959-247.8 247.7959s-247.8-110.9404-247.8-247.7959c0-136.8623 110.9436-247.8027 247.8-247.8027z" fill-rule="evenodd"/></svg>