<svg id="Layer_1" height="512" viewBox="0 0 512 512" width="512" xmlns="http://www.w3.org/2000/svg" data-name="Layer 1"><path d="m256 10.6382c-137.6667 0-247.8 110.1338-247.8 247.8027 0 137.6621 110.1333 247.7959 247.8 247.7959s247.8-110.1338 247.8-247.7959c0-137.6689-110.1333-247.8027-247.8-247.8027zm-110.1335 401.5293c-25.2387 0-45.8888-18.3545-45.8888-43.5928a46.02 46.02 0 0 1 45.8888-45.89c22.9446 0 43.5945 20.6445 43.5945 45.89a43.5638 43.5638 0 0 1 -43.5945 43.5928zm110.1334 0c0-41.3028-16.061-80.3086-45.8888-110.1338-29.8278-29.832-68.8334-45.89-110.1334-45.89v-64.2437c121.6056 0 220.2668 98.6631 220.2668 220.2676zm114.7222 0c0-149.14-121.6056-270.7442-270.7444-270.7442v-64.2441c183.5556 0 334.9887 151.43 334.9887 334.9883z" fill-rule="evenodd"/></svg>