<svg id="Layer_1" height="512" viewBox="0 0 512 512" width="512" xmlns="http://www.w3.org/2000/svg" data-name="Layer 1"><path d="m259.06 281.627h1.1262l57.471 158.8945v.7519q-32.6792 10.1412-59.3491 10.1377-30.4252 0-54.4654-7.8886v-.752zm-173.164-91.2735h.7507q2.2539 3.0044 19.1569 51.461l69.8664 190.4423-.7516.376q-66.4849-33.0585-93.9061-104.05a205.6007 205.6007 0 0 1 -10.8923-65.3582q0-35.6837 15.7765-72.8711zm333.18-13.5215h1.1266q21.7858 43.5689 21.7866 88.6485 0 90.5214-77.7554 151.375l-14.6494 9.0166-.3755-.376q59.7258-170.9121 65.7352-192.3223a143.1064 143.1064 0 0 0 5.2585-37.1875zm-160.7682-97.289q67.6124 0 123.5809 48.8291l-.7511.7519-.376-.7519h-.7506q-21.7877 0-30.8019 24.7939l-1.1267 7.8887q0 16.5292 20.66 47.3252 13.1455 24.4248 13.1464 48.46 0 21.41-14.65 61.5987l-18.03 58.9736h-1.1267l-66.4859-198.707q23.6648-2.2456 25.9181-4.1289l2.2541-5.6328q-1.1261-7.1369-6.7612-7.1368l-50.7094 2.2559-51.46-2.2559q-4.8828 2.2558-4.8834 7.1368v1.1279q0 7.5058 19.1569 7.5127 7.8878 0 7.8882 3.3769l28.1722 76.6309-40.5679 121.7h-1.1271l-67.2367-200.5868q25.9181-2.2456 25.9189-4.5049l2.2529-5.6328q-2.2533-6.7574-6.01-6.7608-37.1877 2.2558-60.4758 2.2559h-2.2541l-1.1263-1.1279q60.4755-83.3946 157.7622-83.3916zm-2.2538-20.2823q-81.51 0-144.6155 59.7256-61.6029 63.482-61.6029 146.4942 0 81.5082 59.7243 144.6142 63.8568 61.6053 146.4941 61.6053 93.53 0 160.768-76.6309 45.45-59.7289 45.4509-130.7168 0-85.2714-66.4855-150.63-62.3546-54.4581-139.7334-54.4616zm0-41.583c136.8559 0 247.8 110.9405 247.8 247.8028 0 136.8554-110.9439 247.7959-247.8 247.7959s-247.8-110.94-247.8-247.7959c0-136.8623 110.9438-247.8028 247.8-247.8028z" fill-rule="evenodd"/></svg>