<svg id="Layer_1" height="512" viewBox="0 0 512 512" width="512" xmlns="http://www.w3.org/2000/svg" data-name="Layer 1"><path d="m124.4437 270.38h53.11q34.8735 0 34.8735 25.5938v2.8847q0 28.4751-31.0343 28.4786h-56.9492zm225.879-34.2412a69.2959 69.2959 0 0 1 12.1577 1.2852q23.6751 9.28 23.6759 31.3564h-71.3471q0-2.2457 1.92-8.3193 7.6789-24.3224 33.5939-24.3223zm0-35.834a89.6271 89.6271 0 0 0 -33.5939 6.3985q-46.0714 21.4409-46.0712 73.917v12.7968q0 24.3224 12.1568 43.8389 25.5971 34.2378 67.5083 34.2344 30.0754 0 48.9518-12.4756 28.4751-22.7226 28.4746-38.083c0-1.9141-.5336-2.8779-1.6-2.8779h-40.632q-10.56 18.8773-32.6347 18.8808a40.812 40.812 0 0 1 -9.9181-1.6q-30.0743-7.9975-30.0743-37.7547h115.8183a1.4164 1.4164 0 0 0 1.6005-1.6064v-13.1179a111.7293 111.7293 0 0 0 -1.2792-16.3174q-12.8-66.23-78.7069-66.2334zm-225.879-13.7607h51.51q31.9947 0 31.9935 23.0371v.6426a52.4049 52.4049 0 0 1 -1.9184 11.1972q-4.8 12.797-39.034 12.8038h-42.5511v-47.6806zm176.6082-25.915c-.64 0-1.0669.4306-1.28 1.2783v19.5166c0 1.497.4277 2.2422 1.28 2.2422h92.4637q1.9194 0 1.9188-2.2422v-19.5165c0-.8477-.6392-1.2783-1.9188-1.2783zm-219.1611-12.1611a1.516 1.516 0 0 0 -1.6 1.2783v214.7037a1.4141 1.4141 0 0 0 1.6 1.6h80.6252q35.1941 0 51.831-4.1563 44.153-17.6068 44.152-61.1137v-.6425q0-37.755-31.6743-50.8731 25.5969-14.7246 25.5963-43.8389a78.2824 78.2824 0 0 0 -1.2809-12.1611q-10.8762-44.7891-62.7082-44.7959zm173.4092-136.288c136.8559 0 247.8 110.9405 247.8 247.8028 0 136.8554-110.9439 247.7959-247.8 247.7959s-247.8-110.9406-247.8-247.796c0-136.8627 110.9439-247.8027 247.8-247.8027z" fill-rule="evenodd"/></svg>