<svg id="Layer_1" height="512" viewBox="0 0 512 512" width="512" xmlns="http://www.w3.org/2000/svg" data-name="Layer 1"><path d="m259.4536 9.4592c-136.1714 0-247.0084 110.8379-247.0084 247.01 0 137.751 110.837 248.5889 247.0084 248.5889a248.0035 248.0035 0 0 0 248.5915-248.5891c0-136.1719-110.8371-247.01-248.5915-247.01zm-60.169 324.5977v-102.9219h-38.001v-49.0889c28.5007-7.916 53.8351-39.58 63.3354-72.8369a121.1411 121.1411 0 0 0 3.1667-23.748h55.4186v88.6688h64.9187v55.419h-64.9187v98.171c0 57.0049 55.4185 33.25 60.1686 33.25l15.8337 52.2539c-14.25 14.2461-159.922 49.082-159.922-79.167z" fill-rule="evenodd"/></svg>