<svg id="Layer_1" height="512" viewBox="0 0 512 512" width="512" xmlns="http://www.w3.org/2000/svg" data-name="Layer 1"><path d="m382.5426 230.3694h22.7966q1.6041 48.3369 1.6047 60.8262v3.1992h-2.569q-4.4945 0-21.8323 1.9209zm-110.1316 0h22.4748v65.9463h-22.4748zm-163.11 0h22.7979v65.9463h-23.7607l-.6421 1.6v-5.12q0-13.7711 1.6047-62.4258zm237.6005-29.1279v124.8447q42.7044 1.9174 54.9059 1.9209h3.532v13.7607h-58.4381v28.1709h94.72v-168.6972zm-111.4151 0v124.8447q44.6308 1.9174 55.8684 1.9209h4.8168l-1.2856 13.7607h-59.4v28.1709h95.6827v-168.6972zm-52.3368 0v124.8447h36.9248v-124.8447zm0-51.2217v35.2119q27.6132 1.9175 34.3566 1.9209c2.14 0 3.21-.1094 3.21-.3213h-.6421v-36.8113zm-49.4464 0-1.6043 51.2148h-59.08v124.8516h95.0411v-176.0662zm123.6168-137.8398c136.8559 0 247.8 110.9405 247.8 247.8028 0 136.8554-110.9439 247.7959-247.8 247.7959s-247.8-110.9406-247.8-247.796c0-136.8627 110.9439-247.8027 247.8-247.8027z" fill-rule="evenodd"/></svg>