<svg id="Layer_1" height="512" viewBox="0 0 512 512" width="512" xmlns="http://www.w3.org/2000/svg" data-name="Layer 1"><path d="m95.2912 328.3071q-7.7418 0-8.0788 7.7451a11.0588 11.0588 0 0 0 3.3667 7.0684q60.5871 62.9385 152.8161 70.6836 80.7828-3.0249 134.6393-45.78a10.2436 10.2436 0 0 0 4.3754-7.7383q-.3357-9.7617-10.0975-9.7617l-8.4155 2.3584q-55.2018 26.5884-119.4921 26.9268-78.0919-6.06-141.709-48.8086zm298.9-12.455q-42.7479 3.3735-44.4311 18.8535 0 6.7265 7.4051 6.7334l28.2742-3.0352q9.7619 1.0152 9.7613 3.0352 0 6.7264-3.3658 16.8232-3.3658 10.1-5.0483 14.3076a19.3192 19.3192 0 0 0 -1.6834 5.8926q0 7.065 7.0684 7.0684 13.8011-.3384 23.2255-28.2735 5.0495-14.4784 5.0488-26.2568 0-15.145-26.2547-15.1484zm-122.5212-108.7188v12.4551a145.54 145.54 0 0 1 -.8421 21.376q-1.178 9.9256-8.4146 22.5517-7.2373 12.6226-22.3843 16.3242l-5.7217.67q-25.9193-3.0249-25.9188-30.6319 0-42.7485 63.2815-42.7451zm-26.929-126.8955q-75.7347 4.03-90.8821 65.6318 0 8.4185 7.0692 8.4151l39.7185 5.7216a21.096 21.096 0 0 0 8.4151-8.75q7.0683-24.5684 32.6501-26.2563 25.918 0 28.9477 24.5752l.6729 23.8984q-124.5414 0-124.5418 83.1387 0 32.6484 18.3451 49.1436 18.3448 16.4985 43.926 16.4951 42.412 0 71.0224-31.3018a62.1122 62.1122 0 0 0 11.4438 16.83q12.4552 12.7866 17.84 12.79 3.03 0 7.5733-3.37 4.5438-3.3633 14.1376-11.9492 9.5931-8.5825 13.9692-12.2842t4.3755-6.7334a7.0584 7.0584 0 0 0 -1.8513-5.2158 5.2249 5.2249 0 0 1 -1.8513-3.5342 165.4776 165.4776 0 0 1 -9.4246-14.8134q-4.3764-7.7418-4.3763-95.0879 0-87.3428-87.1791-87.3428zm11.259-72.0371c136.8559 0 247.8 110.9472 247.8 247.8027s-110.9439 247.7959-247.8 247.7959-247.8-110.9404-247.8-247.7959 110.9439-247.8027 247.8-247.8027z" fill-rule="evenodd"/></svg>