<svg id="Layer_1" height="512" viewBox="0 0 512 512" width="512" xmlns="http://www.w3.org/2000/svg" data-name="Layer 1"><path d="m257.8 12.9006c136.8563 0 247.8 110.9405 247.8 247.8028 0 136.8554-110.9435 247.7959-247.8 247.7959s-247.8-110.9405-247.8-247.7959c0-136.8623 110.9439-247.8028 247.8-247.8028zm79.56 71.3467q-24.5433 0-41.7244 17.3428a57.3406 57.3406 0 0 0 -17.18 41.8838q0 24.22 17.18 41.5625 17.1812 17.35 41.7244 17.3428a57.0567 57.0567 0 0 0 41.8877-17.3428q17.3445-17.3394 17.3445-41.5625a59.2149 59.2149 0 0 0 -59.2322-59.2266zm-107.338 21.5947a43.5775 43.5775 0 0 0 -43.524 43.1963q.3269 18.334 12.9259 30.7617a43.6586 43.6586 0 0 0 61.1961-.164 43.2546 43.2546 0 0 0 0-61.0313 41.4071 41.4071 0 0 0 -30.598-12.7627zm-86.0666 10.8008a35.1961 35.1961 0 0 0 -35.3427 35.3418 34.24 34.24 0 0 0 10.3082 24.8692 35.159 35.159 0 0 0 50.0694 0 35.3515 35.3515 0 0 0 0-49.9024 34.0924 34.0924 0 0 0 -25.0349-10.3086zm0 77.2324q-20.29 0-34.3613 14.0684a46.3732 46.3732 0 0 0 -14.0718 34.0364v2.9463a.29.29 0 0 0 .3273.3282h-.3273v83.4455h75.2677v36.6543h86.0671v72.9737h161.0062v-144.6412q0-33.3867-23.5618-56.9434-23.5622-23.5634-56.9415-23.5634-31.416 0-53.9962 20.6172a70.6272 70.6272 0 0 0 -11.7809-16.3584q-17.3444-17.35-41.5607-17.35-24.8709 0-41.8877 17.35l-1.6363 1.3057a61.2512 61.2512 0 0 0 -8.1814-10.8008 47.4574 47.4574 0 0 0 -34.3612-14.0684z" fill-rule="evenodd"/></svg>