<svg id="Layer_1" height="512" viewBox="0 0 512 512" width="512" xmlns="http://www.w3.org/2000/svg" data-name="Layer 1"><path d="m293.6472 115.2754q-6.4023 3.8349-16.6463 23.8164-14.3427 35.0889-25.6109 35.0889h-80.6743a2.6324 2.6324 0 0 0 -2.8173 2.3037v65.5635q0 2.0506 2.8173 2.0507h44.0508q5.1218 2.81 5.1218 5.12v.7656q-48.66 87.5889-51.99 97.5761v46.8672q0 2.3071 2.8173 2.3106h50.1971q3.0737-.769 14.0863-19.4688 16.9037-38.9238 24.5863-38.9238h81.6989q2.8173 0 2.8164-2.3105v-65.8162q0-2.3071-2.8164-2.3038h-44.0507q0-4.8705-3.5863-4.8671 43.5394-80.4215 50.4535-98.6016v-46.8672q0-2.0508-2.8164-2.3037zm-37.6472-107.0713c136.8563 0 247.8 110.94 247.8 247.8027 0 136.8555-110.9439 247.7959-247.8 247.7959s-247.8-110.9404-247.8-247.7959c0-136.8623 110.9437-247.8027 247.8-247.8027z" fill-rule="evenodd"/></svg>