<svg id="Layer_1" height="512" viewBox="0 0 512 512" width="512" xmlns="http://www.w3.org/2000/svg" data-name="Layer 1"><path d="m255.2079 8.2075c-136.171 0-247.0079 110.8379-247.0079 247.0098 0 137.751 110.8371 248.5889 247.0081 248.5889a248.0036 248.0036 0 0 0 248.5919-248.5889c0-136.1719-110.8371-247.01-248.5923-247.01zm126.6708 273.9225c11.0844 11.0879 23.7514 22.1689 33.2517 34.8359a70.3888 70.3888 0 0 1 12.667 17.418c4.75 9.5019 0 19.0039-7.9169 20.583h-50.6688c-12.667 0-23.7506-4.751-31.6675-14.2461-7.9169-6.3369-14.25-14.2529-20.5839-22.169-3.1667-3.165-6.3335-4.7509-9.5-7.916-6.3335-4.7509-12.667-3.1718-17.4171 4.751q-4.75 9.4952-4.75 23.7481c0 11.081-4.75 14.2529-15.8345 15.832-25.334 0-50.668-3.1651-72.8353-15.832-20.5838-12.667-34.835-28.4991-49.0854-45.917a629.6126 629.6126 0 0 1 -63.335-115.5889c-4.75-7.916-1.5833-12.667 7.9169-14.2529h50.668c6.3335 1.5859 11.0836 4.7509 12.667 11.0879a382.7254 382.7254 0 0 0 33.2517 61.749c4.75 6.3369 7.9168 11.0879 12.667 14.2529 6.3335 4.751 11.0836 3.165 14.25-3.165 1.5834-4.751 1.5834-9.502 3.1668-12.667 0-15.8389 1.5834-31.6709-1.5834-45.9239-1.5834-9.4951-6.3335-15.832-15.8337-17.4111-4.75-1.5859-4.75-3.1719-1.5834-6.3369 3.1667-4.751 7.9169-7.916 15.8337-7.916h57.0014c7.9177 1.5859 11.0845 6.33 12.6678 15.832v63.335c-1.5833 3.1719 1.5834 14.2529 7.9169 15.8388 4.75 1.5791 7.9169-1.5859 11.0836-4.7509 14.25-15.8389 23.7506-33.2569 31.6675-50.668 4.75-7.9229 7.9169-15.8389 11.0836-23.7549 1.5834-6.33 6.3335-9.5019 12.667-9.5019h55.4186c1.5833 0 3.1667 0 4.75 1.5859 9.5 1.5859 12.667 4.751 9.5 14.2529-4.75 14.2461-14.25 25.334-22.1672 38.001q-14.25 19-28.5016 38.001c-7.9169 11.081-7.9169 17.418 3.1668 26.9131z" fill-rule="evenodd"/></svg>