<svg id="Layer_1" height="512" viewBox="0 0 512 512" width="512" xmlns="http://www.w3.org/2000/svg" data-name="Layer 1"><path d="m280.8572 281.8583q19.2837 43.3842 32.5416 110.2773-34.6488 18.6827-65.6848 18.6826-44.8942 0-81.9544-37.9668 37.36-63.8818 115.0976-90.9931zm63.5759-9.9463a172.6987 172.6987 0 0 1 56.6451 9.3447q-11.7522 63.8716-62.6718 97.9248-7.8341-41.58-28.3222-104.5557a228.2331 228.2331 0 0 1 34.3489-2.7138zm-87.9811-39.4707h.9032q0 3.3222 14.4632 24.7119-78.34 24.999-124.74 98.2256-37.6638-40.0826-37.6634-99.4356v-2.707q78.34 0 147.0367-20.7949zm112.99-67.792q31.9371 37.97 33.444 91.2939a354.5229 354.5229 0 0 0 -67.7928-6.9248 264.4578 264.4578 0 0 0 -34.0473 2.1055 138.0491 138.0491 0 0 0 -6.9308-14.4648q-4.5199-9.6391-6.3271-14.7591 50.92-19.585 81.6535-57.251zm-176.8667-40.0723q16.27 20.4873 55.1387 83.7608-58.15 17.78-135.2849 18.6826 15.3654-69.6036 80.1462-102.4434zm68.6969-15.9687q51.8246 0 91.5973 38.2675-24.1044 32.5358-76.23 53.3272-17.7777-31.9409-54.5363-86.1738a153.0328 153.0328 0 0 1 39.1691-5.4209zm-15.6671-23.502q-66.2863 5.7217-111.4822 50.3194-45.4965 46.0913-50.3185 111.48v21.0893q18.6814 143.4213 161.8007 161.499h20.79q66.2863-5.7216 111.483-50.3125 44.5919-44.9015 50.3166-111.1865v-20.1865q-5.723-68.3936-50.3168-112.3828-46.4-45.4967-112.0863-50.3194zm10.3949-75.6055c136.8563 0 247.8 110.9473 247.8 247.8028s-110.9437 247.7964-247.8 247.7964-247.8-110.9409-247.8-247.7964 110.9437-247.8028 247.8-247.8028z" fill-rule="evenodd"/></svg>