<svg id="Layer_1" height="512" viewBox="0 0 512 512" width="512" xmlns="http://www.w3.org/2000/svg" data-name="Layer 1"><path d="m255.2079 8.2007c-136.171 0-247.0079 110.8379-247.0079 247.0093 0 137.751 110.8371 248.5889 247.0081 248.5889a248.0036 248.0036 0 0 0 248.5919-248.5889c0-136.1718-110.8371-247.01-248.5923-247.01zm-104.5036 335.6787c-44.3344 0-80.752-39.5869-80.752-88.669 0-49.0888 36.4176-88.6689 80.752-88.6689 45.9187 0 82.3363 39.58 82.3363 88.6689 0 49.0821-36.4176 88.669-82.3363 88.669zm207.4238-1.5859c-45.9179 0-83.92-39.58-83.92-87.0831 0-49.0888 38.0018-88.6689 83.92-88.6689s83.92 39.58 83.92 88.6689c0 47.503-38.0009 87.0831-83.92 87.0831z" fill-rule="evenodd"/></svg>