<svg id="Layer_1" height="512" viewBox="0 0 512 512" width="512" xmlns="http://www.w3.org/2000/svg" data-name="Layer 1"><path d="m334.6355 224.1855q18.1853 0 18.1844 19.2979a19.3664 19.3664 0 0 1 -.32 4.1836q-7.0176-3.8658-22.9688-3.8623a46.084 46.084 0 0 0 -13.3984 1.9277 11.4157 11.4157 0 0 1 -.9562-4.498 21.4313 21.4313 0 0 1 1.116-5.6328q1.1163-3.6915 6.0617-7.5537a19.3666 19.3666 0 0 1 12.2808-3.8624zm-159.4978-131.5371q-3.5094 0-28.7109 26.6944l-25.5212 27.6582q0 .9639 7.0188 1.9277 10.5256.3282 28.0727.3213l10.846-.3213q6.3819 0 8.4535-1.6064 2.0752-1.61 2.3943-9.81.3166-8.2032.317-18.17 0-25.7271-2.87-26.6944zm55.82-14.7861q-43.0652 0-43.0664 18.3272v19.94q0 24.4453-4.1469 36.0185-3.1914 4.83-16.27 4.8262-6.3805 0-15.1528-.3213-8.7721-.3179-18.9816-.3213-10.8462.6359-15.6313 6.59-4.7847 5.9472-5.2636 9.4883a50.398 50.398 0 0 0 -.4786 6.7539q0 25.0811 13.7181 87.4726 6.38 27.9829 9.2507 34.4121 6.0626 8.0391 30.3063 14.793 40.5144 12.5508 67.95 12.5439 7.975 0 11.4844-1.9277 9.249-6.44 12.7593-29.2646.9588-7.4034 2.2328-7.3965.6408 0 2.7121 4.9834 2.0739 4.9833 3.6692 8.8457 3.8286 7.3931 36.6859 13.8222 18.1841 4.5119 28.0735 9.01 6.3805 4.1733 10.5274 16.3994a89.5787 89.5787 0 0 1 2.2328 19.6192q0 3.2094-.16 10.6093-.159 7.4034-6.22 13.1866-5.4229 3.5376-14.0376 3.541a65.322 65.322 0 0 1 -10.3675-.9639 84.0384 84.0384 0 0 0 -13.5583-.9707q-11.8009 0-11.8022-13.8291a33.4832 33.4832 0 0 1 .957-6.59q.9563-4.3374 4.7843-4.8262a58.785 58.785 0 0 1 7.3376-.4785l9.2515.3213v-25.4089l-9.889-.6426a94.6654 94.6654 0 0 0 -19.9387 2.5772q-11.6447 2.5633-22.4911 17.0419-4.1465 7.0752-4.1469 19.94 0 28.9365 14.3564 41.4873 18.8209 13.5043 61.25 13.501h12.4414q8.6133-.6358 12.761-2.57 45.9362-29.9106 45.9366-182.67 0-26.0449-2.2328-54.3457l-1.5945-28.6221v-8.039a53.6163 53.6163 0 0 0 -6.3813-25.73q-9.57-17.37-33.814-19.94-20.0976-.6357-31.9016-1.6065-14.3541-.9637-22.809-1.2851-8.4555-.3282-18.9808-.6426-4.4669-27.6651-51.3618-27.6582zm25.0423-71.2441c136.8563 0 247.8 110.94 247.8 247.8027 0 136.8555-110.9439 247.7959-247.8 247.7959s-247.8-110.9404-247.8-247.7959c0-136.8623 110.9437-247.8027 247.8-247.8027z" fill-rule="evenodd"/></svg>