<svg id="Layer_1" height="512" viewBox="0 0 512 512" width="512" xmlns="http://www.w3.org/2000/svg" data-name="Layer 1"><path d="m253.8081 6.6182c-136.1712 0-247.0081 110.8379-247.0081 247.0097 0 137.751 110.8371 248.5889 247.0083 248.5889a248.0034 248.0034 0 0 0 248.5917-248.5889c0-136.1718-110.837-247.01-248.5916-247.01zm49.085 437.0146c-36.4178 6.3369-72.8358 6.3369-107.67-11.081-58.5852-28.5059-88.67-74.4229-90.2529-140.9229v-185.2607c0-12.667 4.75-20.583 15.8337-26.9131 11.0838-4.751 22.1675-4.751 31.6677 3.165 7.9171 6.3369 11.0838 14.2529 11.0838 23.7481v183.6748c0 49.0888 31.6677 88.6689 79.1694 96.5849 30.0843 4.751 60.1686 3.1719 85.5028-15.832a89.5605 89.5605 0 0 0 39.5848-98.1709c-7.9171-38.001-39.5848-66.5-77.5862-71.251-11.0836-1.5859-22.1672-1.5859-31.6677-1.5859a31.2418 31.2418 0 0 1 -31.6677-28.499c-1.5834-15.8321 9.5-28.4991 26.9176-30.085 91.8363-9.4951 156.7553 50.668 172.5893 121.9258 17.4171 82.332-41.1682 167.8359-123.5043 180.5029z" fill-rule="evenodd"/></svg>