<svg id="Layer_1" height="512" viewBox="0 0 512 512" width="512" xmlns="http://www.w3.org/2000/svg" data-name="Layer 1"><path d="m253.9 8.2007c-137.6671 0-247.8 110.1338-247.8 247.8027 0 137.6621 110.1334 247.7959 247.8 247.7959s247.8-110.1338 247.8-247.7959c0-137.6689-110.1334-247.8027-247.8-247.8027zm110.1326 204.2031c-6.8829 2.2969-89.4833 64.2441-94.0719 80.3086-2.2947 4.5869 0 57.36 0 64.2441 6.8834 2.2969 45.8888 0 52.7722 2.2969l-2.2944 16.0576h-158.3168l2.2943-16.0576c9.1781 0 41.3 2.29 48.1835-4.5937 2.2943-4.5869 2.2943-52.7735 0-61.9473-2.2943-9.1807-73.4222-98.6631-91.7776-112.4307h-48.1835v-22.9417h160.6116v2.2969h2.2943l-2.2943 4.5869v16.0576h-48.184c22.9444 32.1221 52.7722 71.128 66.5389 89.4825l64.2446-59.65h-36.7111l-6.8834-22.9483h142.255v2.2969l-9.1772 13.7675h-2.2943l-2.2944 6.8838h-27.5334c-2.2943 0-6.8834 0-9.1781 2.29zm43.5945 162.9072h-11.472l-11.4724-2.2968v-22.9414l13.7667 2.2968h13.7667zm2.2947-39.0058-20.65-2.29v-100.96c4.5891 0 43.5945 4.5869 45.8888 4.5869l-25.2387 98.6631z" fill-rule="evenodd"/></svg>