<svg id="Layer_1" height="512" viewBox="0 0 512 512" width="512" xmlns="http://www.w3.org/2000/svg" data-name="Layer 1"><path d="m255.2085 4.8175c-136.1714 0-247.0085 110.8379-247.0085 247.0097 0 137.751 110.8371 248.5889 247.0085 248.5889a248.0035 248.0035 0 0 0 248.5915-248.5889c0-136.1718-110.8371-247.01-248.5915-247.01zm0 150.4248c-9.5006 0-19.0009 9.4951-19.0009 18.9971v120.34a82.3361 82.3361 0 0 1 -164.6722 0v-53.84h61.752v52.2539c0 9.5019 9.5007 19.0039 20.5843 19.0039s19-9.502 19-19.0039v-118.7539c0-44.3311 38.0014-82.3389 82.3363-82.3389 45.9179 0 83.9193 38.0078 83.9193 82.3389v25.3339l-34.8347 11.0811-28.5007-11.0811v-25.3339c0-9.502-9.5-18.9971-20.5839-18.9971zm102.92 221.6689a81.77 81.77 0 0 1 -82.3363-82.332v-53.84l28.5007 12.6669 34.8347-12.6669v53.84c0 11.0811 7.9168 18.9971 19.0009 18.9971s19.0005-7.916 19.0005-18.9971v-52.2539h63.3354v52.2539a81.77 81.77 0 0 1 -82.3359 82.332z" fill-rule="evenodd"/></svg>