<svg id="Layer_1" height="512" viewBox="0 0 512 512" width="512" xmlns="http://www.w3.org/2000/svg" data-name="Layer 1"><path d="m354.5155 155.4348c3.142 0 4.7134 1.0049 4.7134 3.0284a7.0835 7.0835 0 0 1 -.1683 1.1757q-.1692.8409-144.234 130.7715l-5.0484 49.1436-23.5626-77.417q167.2913-106.7022 168.3-106.7022zm53.52-48.8086q-2.0189 0-317.4123 117.8106-7.743 3.0249-7.7425 11.1084 1.01 7.7417 8.0792 10.0967l76.744 23.8981 30.9661 93.2357q3.03 8.08 12.1185 8.08a11.4322 11.4322 0 0 0 7.7417-3.3632l43.4218-40.7286 78.427 56.8819a15.1793 15.1793 0 0 0 9.4251 3.37q13.1276 0 16.1567-13.1318l53.1828-255.1377a10.1546 10.1546 0 0 0 -3.5342-8.7569q-3.8709-3.3633-7.5742-3.3633zm-153.4355-100.6455c136.8554 0 247.8 110.9473 247.8 247.8028s-110.9448 247.7959-247.8 247.7959-247.8-110.9405-247.8-247.7959 110.9435-247.8028 247.8-247.8028z" fill-rule="evenodd"/></svg>