<svg id="Layer_1" height="512" viewBox="0 0 512 512" width="512" xmlns="http://www.w3.org/2000/svg" data-name="Layer 1"><path d="m346.9128 371.8315v6.6585h.6828v-5.804l2.0491 5.8037h.5126l2.2192-5.8037v5.804h.8536v-6.6582h-1.1954l-2.0482 5.12-1.8782-5.12zm-5.4636 0v.8545h2.2191v5.804h.5127v-5.804h1.8782v-.8545zm-81.6134-92.2031-26.9772 92.2031q27.8317 18.611 51.3926 18.6075 22.5381 0 52.4171-12.2911l26.9764-92.538q-29.8787 12.2841-52.5872 12.291-24.7568 0-51.2217-18.2725zm-65.5635-27.8291q-22.5381 0-52.4171 12.2979l-25.44 87.9306 2.5609 2.3858q26.6358-10.4179 48.6608-10.4112 23.5622 0 51.3925 18.2657l26.6354-92.1963q-27.4894-18.2725-51.3926-18.2725zm96.98-80.9306-26.9772 92.5449q27.3189 18.2622 51.5635 18.2656 22.5381 0 52.4171-12.291l25.6108-88.2725-2.5609-2.3926q-27.1485 10.4181-48.32 10.418-26.1231 0-51.7335-18.2724zm-65.2223-28.1709q-22.538 0-52.4171 12.291l-26.9763 92.8867q29.8787-12.2944 52.4163-12.2979 24.758 0 51.2216 18.2725l26.8055-92.8801q-26.4641-18.2724-51.0508-18.2724zm29.97-134.4971c136.8563 0 247.8 110.94 247.8 247.8027 0 136.8555-110.9439 247.7959-247.8 247.7959s-247.8-110.9404-247.8-247.7959c0-136.8623 110.9437-247.8027 247.8-247.8027z" fill-rule="evenodd"/></svg>