<svg id="Layer_1" height="512" viewBox="0 0 512 512" width="512" xmlns="http://www.w3.org/2000/svg" data-name="Layer 1"><path d="m256.4283 156.6294q28.173 0 48.2769 20.1045 20.1038 20.1079 20.1043 47.7627 0 28.69-20.1043 48.665t-48.2769 19.9746q-28.1716 0-48.1483-19.9746t-19.9761-48.665a64.1876 64.1876 0 0 1 12.805-39.4365 27.9727 27.9727 0 0 0 8.8363 18.1836 26.0312 26.0312 0 0 0 18.5677 7.4238 26.8972 26.8972 0 0 0 19.592-7.9365 26.2439 26.2439 0 0 0 8.0673-19.462q0-16.3959-15.6223-24.8418a71.8368 71.8368 0 0 1 15.8784-1.7978zm0-44.5635q-46.6113 0-79.5211 32.9151-32.91 32.9047-32.9106 79.5156 0 41.7539 23.4344 82.2158t50.5815 66.8418q27.1476 26.3834 38.4158 26.38 11.27 0 38.4165-26.38 27.1476-26.3833 50.71-66.8418 23.5612-40.4724 23.5612-82.2158 0-46.6041-33.0379-79.5156-33.0378-32.9151-79.65-32.9151zm.128-103.8652c136.8565 0 247.8 110.94 247.8 247.8027 0 136.8555-110.9437 247.7959-247.8 247.7959s-247.8-110.94-247.8-247.7959c0-136.8623 110.9435-247.8027 247.8-247.8027z" fill-rule="evenodd"/></svg>