<svg id="Layer_1" height="512" viewBox="0 0 512 512" width="512" xmlns="http://www.w3.org/2000/svg" data-name="Layer 1"><path d="m258.88 109.3479q24.2653 1.22 43.73 18.375 29.71 26.64 35.8558 65.5635 1.3656 11.6176 1.707 23.2217.3413 23.9019 0 48.1523a113.12 113.12 0 0 1 -22.8787 67.9496c-.2277.2325-.4552.4581-.683.6836v.1709c0 .1162-.1138.1709-.3413.1709v.3418q-34.49-36.8832-84.3457-33.8037v33.12q27.6615 5.8038 42.003 30.7344a26.4306 26.4306 0 0 1 -4.0988 1.0254q-4.4384 1.0254-8.8786 1.709-34.488 3.0659-59.0753-21.1709a111.8277 111.8277 0 0 1 -32.7822-63.8614q-1.0227-10.2437-1.3657-20.1455-.3415-24.9273 0-49.5127.6842-45.7632 31.7579-78.8868a72.4957 72.4957 0 0 1 42.6849-22.873 80.6918 80.6918 0 0 1 16.7108-.9639zm-15.0037-43.0869a10.1355 10.1355 0 0 1 -2.39.3418 25.1207 25.1207 0 0 1 -4.0979.3418q-59.7584 5.4554-102.7854 47.8037a168.784 168.784 0 0 0 -47.8061 89.127q-1.367 8.1928-2.0494 16.0508c-.2276 2.7275-.4553 5.2363-.6828 7.5126a3.008 3.008 0 0 0 -.3414 1.36v17.76a7.5893 7.5893 0 0 0 .3414 2.3925 27.0466 27.0466 0 0 0 .3414 4.4366q4.7813 57.0219 43.0262 99.3672a164.4732 164.4732 0 0 0 81.955 50.545 161.6459 161.6459 0 0 0 61.8076 4.4365q7.5112-1.0254 15.0249-2.3926a56.4972 56.4972 0 0 0 6.1464-1.0254 14.307 14.307 0 0 1 2.0486 2.7344q1.0254 2.0508 2.3907 4.4365a80.3668 80.3668 0 0 0 29.0256 27.6651 65.3358 65.3358 0 0 0 24.9279 7.1709 5.4831 5.4831 0 0 1 1.7079.3418h13.6584a15.4641 15.4641 0 0 1 3.0736-.3418 60.017 60.017 0 0 0 6.1464-1.0254q3.0726-.3384 6.4888-1.0254a12.7856 12.7856 0 0 1 3.0725-.3418v-28.6835q-28.0011-6.829-43.3676-31.76a.9923.9923 0 0 1 .6828-.3418 13.23 13.23 0 0 1 2.05-1.7021 170.24 170.24 0 0 0 61.807-71.7154 159.5691 159.5691 0 0 0 15.3663-61.8037v-1.0254c.2269-.2256.3414-.3418.3414-.3418v-18.4436a3.7577 3.7577 0 0 1 -.3414-1.7021 31.6165 31.6165 0 0 1 -.3422-4.4434q-4.78-57.7091-44.05-100.3926a171.7706 171.7706 0 0 0 -59.0756-42.6836 162.2368 162.2368 0 0 0 -49.514-11.9492 34.072 34.072 0 0 1 -4.7808-.3418 6.5025 6.5025 0 0 1 -2.0485-.3418zm8.8786-57.6c136.8564 0 247.8 110.94 247.8 247.8027 0 136.8555-110.9436 247.7959-247.8 247.7959s-247.7999-110.9396-247.7999-247.7955c0-136.8623 110.9436-247.8027 247.8-247.8027z" fill-rule="evenodd"/></svg>