<?xml version="1.0" encoding="UTF-8"?>
<svg width="346px" height="103px" viewBox="0 0 346 103" version="1.1" xmlns="http://www.w3.org/2000/svg" xmlns:xlink="http://www.w3.org/1999/xlink">
    <!-- Generator: Sketch 59 (86127) - https://sketch.com -->
    <title>Logo@1x</title>
    <desc>Created with Sketch.</desc>
    <g id="Page-1" stroke="none" stroke-width="1" fill="none" fill-rule="evenodd">
        <g id="Logo">
            <path d="M28.624,53.748 L40.018,53.748 L34.834,40.878 C34.6539991,40.4579979 34.4800008,39.9540029 34.312,39.366 C34.2399996,39.6540014 34.1620004,39.9269987 34.078,40.185 C33.9939996,40.4430013 33.9040005,40.6799989 33.808,40.896 L28.624,53.748 Z M45.652,63 L44.23,63 C44.0619992,63 43.9240005,62.9550005 43.816,62.865 C43.7079995,62.7749996 43.6240003,62.6580007 43.564,62.514 L40.576,55.116 L28.066,55.116 L25.078,62.514 C25.0299998,62.6460007 24.9460006,62.7599995 24.826,62.856 C24.7059994,62.9520005 24.5620008,63 24.394,63 L22.99,63 L33.412,37.53 L35.23,37.53 L45.652,63 Z M71.338,50.256 C71.338,52.2240098 71.0440029,53.9939921 70.456,55.566 C69.8679971,57.1380079 69.0400053,58.4759945 67.972,59.58 C66.9039947,60.6840055 65.6230075,61.53 64.129,62.118 C62.6349925,62.7060029 60.988009,63 59.188,63 L49.882,63 L49.882,37.53 L59.188,37.53 C60.988009,37.53 62.6349925,37.8239971 64.129,38.412 C65.6230075,39.0000029 66.9039947,39.8459945 67.972,40.95 C69.0400053,42.0540055 69.8679971,43.3919921 70.456,44.964 C71.0440029,46.5360079 71.338,48.2999902 71.338,50.256 Z M69.43,50.256 C69.43,48.4799911 69.1840025,46.896007 68.692,45.504 C68.1999975,44.111993 67.5040045,42.9360048 66.604,41.976 C65.7039955,41.0159952 64.6240063,40.2840025 63.364,39.78 C62.1039937,39.2759975 60.7120076,39.024 59.188,39.024 L51.736,39.024 L51.736,61.506 L59.188,61.506 C60.7120076,61.506 62.1039937,61.2540025 63.364,60.75 C64.6240063,60.2459975 65.7039955,59.5140048 66.604,58.554 C67.5040045,57.5939952 68.1999975,56.418007 68.692,55.026 C69.1840025,53.633993 69.43,52.0440089 69.43,50.256 Z M79.582,53.748 L90.976,53.748 L85.792,40.878 C85.6119991,40.4579979 85.4380008,39.9540029 85.27,39.366 C85.1979996,39.6540014 85.1200004,39.9269987 85.036,40.185 C84.9519996,40.4430013 84.8620005,40.6799989 84.766,40.896 L79.582,53.748 Z M96.61,63 L95.188,63 C95.0199992,63 94.8820005,62.9550005 94.774,62.865 C94.6659995,62.7749996 94.5820003,62.6580007 94.522,62.514 L91.534,55.116 L79.024,55.116 L76.036,62.514 C75.9879998,62.6460007 75.9040006,62.7599995 75.784,62.856 C75.6639994,62.9520005 75.5200008,63 75.352,63 L73.948,63 L84.37,37.53 L86.188,37.53 L96.61,63 Z M126.004,37.53 L126.004,63 L124.402,63 L124.402,41.292 C124.402,40.9799984 124.42,40.6500017 124.456,40.302 L114.43,58.104 C114.261999,58.4160016 114.022002,58.572 113.71,58.572 L113.422,58.572 C113.109998,58.572 112.870001,58.4160016 112.702,58.104 L102.406,40.266 C102.442,40.6260018 102.46,40.9679984 102.46,41.292 L102.46,63 L100.84,63 L100.84,37.53 L102.118,37.53 C102.286001,37.53 102.418,37.5479998 102.514,37.584 C102.61,37.6200002 102.706,37.7159992 102.802,37.872 L113.08,55.584 C113.260001,55.9200017 113.415999,56.2799981 113.548,56.664 C113.62,56.471999 113.698,56.2830009 113.782,56.097 C113.866,55.9109991 113.956,55.7340008 114.052,55.566 L124.042,37.872 C124.138,37.7159992 124.236999,37.6200002 124.339,37.584 C124.441001,37.5479998 124.575999,37.53 124.744,37.53 L126.004,37.53 Z M151.546,61.524 C153.778011,61.524 155.466994,61.0410048 156.613,60.075 C157.759006,59.1089952 158.332,57.7500088 158.332,55.998 C158.332,55.193996 158.179002,54.4710032 157.873,53.829 C157.566998,53.1869968 157.126003,52.6410022 156.55,52.191 C155.973997,51.7409977 155.266004,51.3960012 154.426,51.156 C153.585996,50.9159988 152.632005,50.796 151.564,50.796 L145.156,50.796 L145.156,61.524 L151.546,61.524 Z M145.156,38.988 L145.156,49.446 L150.664,49.446 C151.840006,49.446 152.844996,49.2960015 153.679,48.996 C154.513004,48.6959985 155.196997,48.3000025 155.731,47.808 C156.265003,47.3159975 156.657999,46.7580031 156.91,46.134 C157.162001,45.5099969 157.288,44.8680033 157.288,44.208 C157.288,42.4919914 156.745005,41.1930044 155.659,40.311 C154.572995,39.4289956 152.896011,38.988 150.628,38.988 L145.156,38.988 Z M150.628,37.53 C152.080007,37.53 153.339995,37.6739986 154.408,37.962 C155.476005,38.2500014 156.357997,38.6729972 157.054,39.231 C157.750003,39.7890028 158.265998,40.469996 158.602,41.274 C158.938002,42.078004 159.106,42.9899949 159.106,44.01 C159.106,44.6820034 158.989001,45.3299969 158.755,45.954 C158.520999,46.5780031 158.185002,47.1539974 157.747,47.682 C157.308998,48.2100026 156.769003,48.668998 156.127,49.059 C155.484997,49.4490019 154.750004,49.745999 153.922,49.95 C155.92601,50.2380014 157.464995,50.9009948 158.539,51.939 C159.613005,52.9770052 160.15,54.3419915 160.15,56.034 C160.15,57.1140054 159.958002,58.0859957 159.574,58.95 C159.189998,59.8140043 158.632004,60.545997 157.9,61.146 C157.167996,61.746003 156.268005,62.2049984 155.2,62.523 C154.131995,62.8410016 152.920007,63 151.564,63 L143.302,63 L143.302,37.53 L150.628,37.53 Z M181.354,61.47 L181.318,63 L166.054,63 L166.054,37.53 L181.318,37.53 L181.318,39.06 L167.908,39.06 L167.908,49.356 L179.068,49.356 L179.068,50.85 L167.908,50.85 L167.908,61.47 L181.354,61.47 Z M205.312,58.716 C205.432001,58.716 205.534,58.7579996 205.618,58.842 L206.338,59.616 C205.809997,60.1800028 205.237003,60.6869978 204.619,61.137 C204.000997,61.5870022 203.323004,61.9709984 202.585,62.289 C201.846996,62.6070016 201.037004,62.8529991 200.155,63.027 C199.272996,63.2010009 198.304005,63.288 197.248,63.288 C195.483991,63.288 193.867007,62.9790031 192.397,62.361 C190.926993,61.7429969 189.664005,60.8670057 188.608,59.733 C187.551995,58.5989943 186.733003,57.228008 186.151,55.62 C185.568997,54.011992 185.278,52.2240098 185.278,50.256 C185.278,48.3239903 185.577997,46.560008 186.178,44.964 C186.778,43.367992 187.617995,41.9970057 188.698,40.851 C189.778,39.7049943 191.073992,38.8170031 192.586,38.187 C194.098008,37.5569968 195.765991,37.242 197.59,37.242 C199.330009,37.242 200.871993,37.5119973 202.216,38.052 C203.560007,38.5920027 204.783994,39.3539951 205.888,40.338 L205.33,41.148 C205.234,41.2920007 205.084001,41.364 204.88,41.364 C204.753999,41.364 204.559095,41.2629385 204.295282,41.0608129 L204.178,40.968 C203.853998,40.7039987 203.404003,40.4130016 202.828,40.095 C202.251997,39.7769984 201.535004,39.4860013 200.677,39.222 C199.818996,38.9579987 198.790006,38.826 197.59,38.826 C196.053992,38.826 194.647006,39.0899974 193.369,39.618 C192.090994,40.1460026 190.993005,40.9019951 190.075,41.886 C189.156995,42.8700049 188.440003,44.0699929 187.924,45.486 C187.407997,46.9020071 187.15,48.4919912 187.15,50.256 C187.15,52.056009 187.410997,53.6639929 187.933,55.08 C188.455003,56.4960071 189.171995,57.6929951 190.084,58.671 C190.996005,59.6490049 192.072994,60.3989974 193.315,60.921 C194.557006,61.4430026 195.897993,61.704 197.338,61.704 C198.250005,61.704 199.062996,61.6440006 199.777,61.524 C200.491004,61.4039994 201.147997,61.2240012 201.748,60.984 C202.348003,60.7439988 202.905997,60.4500017 203.422,60.102 C203.938003,59.7539983 204.447997,59.3460023 204.952,58.878 C205.012,58.8299998 205.072,58.7910002 205.132,58.761 C205.192,58.7309999 205.252,58.716 205.312,58.716 Z M213.124,49.284 L214.636,49.284 C214.864001,49.284 215.061999,49.2750001 215.23,49.257 C215.398001,49.2389999 215.550999,49.2060002 215.689,49.158 C215.827001,49.1099998 215.952999,49.0410004 216.067,48.951 C216.181001,48.8609996 216.303999,48.7500007 216.436,48.618 L226.714,38.052 C226.894001,37.847999 227.070999,37.7100004 227.245,37.638 C227.419001,37.5659996 227.625999,37.53 227.866,37.53 L229.342,37.53 L218.218,48.96 C217.989999,49.2000012 217.789001,49.3859993 217.615,49.518 C217.440999,49.6500007 217.246001,49.7579996 217.03,49.842 C217.282001,49.9140004 217.509999,50.0249993 217.714,50.175 C217.918001,50.3250008 218.121999,50.5199988 218.326,50.76 L230.044,63 L228.55,63 C228.237998,63 228.013001,62.9610004 227.875,62.883 C227.736999,62.8049996 227.602001,62.6820008 227.47,62.514 L216.706,51.498 C216.573999,51.3659993 216.451001,51.2520005 216.337,51.156 C216.222999,51.0599995 216.097001,50.9790003 215.959,50.913 C215.820999,50.8469997 215.659001,50.7990001 215.473,50.769 C215.286999,50.7389998 215.050001,50.724 214.762,50.724 L213.124,50.724 L213.124,63 L211.27,63 L211.27,37.53 L213.124,37.53 L213.124,49.284 Z M256.756,50.256 C256.756,52.2240098 256.462003,54.008992 255.874,55.611 C255.285997,57.213008 254.458005,58.5809943 253.39,59.715 C252.321995,60.8490057 251.041007,61.7249969 249.547,62.343 C248.052993,62.9610031 246.406009,63.27 244.606,63.27 C242.805991,63.27 241.162007,62.9610031 239.674,62.343 C238.185993,61.7249969 236.908005,60.8490057 235.84,59.715 C234.771995,58.5809943 233.944003,57.213008 233.356,55.611 C232.767997,54.008992 232.474,52.2240098 232.474,50.256 C232.474,48.2999902 232.767997,46.521008 233.356,44.919 C233.944003,43.316992 234.771995,41.9490057 235.84,40.815 C236.908005,39.6809943 238.185993,38.8020031 239.674,38.178 C241.162007,37.5539969 242.805991,37.242 244.606,37.242 C246.406009,37.242 248.052993,37.5509969 249.547,38.169 C251.041007,38.7870031 252.321995,39.6659943 253.39,40.806 C254.458005,41.9460057 255.285997,43.316992 255.874,44.919 C256.462003,46.521008 256.756,48.2999902 256.756,50.256 Z M254.848,50.256 C254.848,48.4799911 254.602002,46.8840071 254.11,45.468 C253.617998,44.0519929 252.922004,42.8520049 252.022,41.868 C251.121995,40.8839951 250.042006,40.1310026 248.782,39.609 C247.521994,39.0869974 246.130008,38.826 244.606,38.826 C243.093992,38.826 241.708006,39.0869974 240.448,39.609 C239.187994,40.1310026 238.105005,40.8839951 237.199,41.868 C236.292995,42.8520049 235.591002,44.0519929 235.093,45.468 C234.594998,46.8840071 234.346,48.4799911 234.346,50.256 C234.346,52.0440089 234.594998,53.642993 235.093,55.053 C235.591002,56.4630071 236.292995,57.6599951 237.199,58.644 C238.105005,59.6280049 239.187994,60.3779974 240.448,60.894 C241.708006,61.4100026 243.093992,61.668 244.606,61.668 C246.130008,61.668 247.521994,61.4100026 248.782,60.894 C250.042006,60.3779974 251.121995,59.6280049 252.022,58.644 C252.922004,57.6599951 253.617998,56.4630071 254.11,55.053 C254.602002,53.642993 254.848,52.0440089 254.848,50.256 Z M281.992,37.53 L271.48,63 L269.842,63 L259.33,37.53 L260.788,37.53 C260.956001,37.53 261.093999,37.5749996 261.202,37.665 C261.310001,37.7550004 261.394,37.8719993 261.454,38.016 L270.13,59.148 C270.226,59.4120013 270.322,59.6939985 270.418,59.994 C270.514,60.2940015 270.604,60.5999984 270.688,60.912 C270.76,60.5999984 270.838,60.2940015 270.922,59.994 C271.006,59.6939985 271.101999,59.4120013 271.21,59.148 L279.868,38.016 C279.916,37.8839993 279.999999,37.7700005 280.12,37.674 C280.240001,37.5779995 280.383999,37.53 280.552,37.53 L281.992,37.53 Z M298.588,40.626 C298.479999,40.830001 298.324001,40.932 298.12,40.932 C297.986285,40.932 297.819511,40.8504498 297.619674,40.6873473 L297.517,40.599 C297.270999,40.3769989 296.938002,40.1310013 296.518,39.861 C296.097998,39.5909986 295.573003,39.3420011 294.943,39.114 C294.312997,38.8859989 293.536005,38.772 292.612,38.772 C291.687995,38.772 290.875004,38.9039987 290.173,39.168 C289.470996,39.4320013 288.883002,39.7919977 288.409,40.248 C287.934998,40.7040023 287.575001,41.231997 287.329,41.832 C287.082999,42.432003 286.96,43.0619967 286.96,43.722 C286.96,44.5860043 287.142998,45.2999972 287.509,45.864 C287.875002,46.4280028 288.357997,46.907998 288.958,47.304 C289.558003,47.700002 290.238996,48.0329986 291.001,48.303 C291.763004,48.5730013 292.545996,48.8399987 293.35,49.104 C294.154004,49.3680013 294.936996,49.6589984 295.699,49.977 C296.461004,50.2950016 297.141997,50.6939976 297.742,51.174 C298.342003,51.6540024 298.824998,52.2449965 299.191,52.947 C299.557002,53.6490035 299.74,54.5219948 299.74,55.566 C299.74,56.6340053 299.557002,57.6389953 299.191,58.581 C298.824998,59.5230047 298.294003,60.3419965 297.598,61.038 C296.901997,61.7340035 296.050005,62.282998 295.042,62.685 C294.033995,63.087002 292.882006,63.288 291.586,63.288 C289.905992,63.288 288.460006,62.991003 287.248,62.397 C286.035994,61.802997 284.974005,60.9900052 284.062,59.958 L284.566,59.166 C284.710001,58.9859991 284.877999,58.896 285.07,58.896 C285.178001,58.896 285.315999,58.9679993 285.484,59.112 L286.096,59.643 L286.096,59.643 C286.336001,59.8530011 286.623998,60.0809988 286.96,60.327 C287.296002,60.5730012 287.685998,60.800999 288.13,61.011 C288.574002,61.221001 289.083997,61.3979993 289.66,61.542 C290.236003,61.6860007 290.889996,61.758 291.622,61.758 C292.630005,61.758 293.529996,61.6050015 294.322,61.299 C295.114004,60.9929985 295.782997,60.5760026 296.329,60.048 C296.875003,59.5199974 297.291999,58.8930036 297.58,58.167 C297.868001,57.4409964 298.012,56.6640041 298.012,55.836 C298.012,54.9359955 297.829002,54.1950029 297.463,53.613 C297.096998,53.0309971 296.614003,52.5450019 296.014,52.155 C295.413997,51.7649981 294.733004,51.4380013 293.971,51.174 C293.208996,50.9099987 292.426004,50.6520013 291.622,50.4 C290.817996,50.1479987 290.035004,49.8660016 289.273,49.554 C288.510996,49.242 287.830003,48.8430024 287.23,48.357 C286.629997,47.8709976 286.147002,47.2650036 285.781,46.539 C285.414998,45.8129964 285.232,44.9040055 285.232,43.812 C285.232,42.9599957 285.393998,42.138004 285.718,41.346 C286.042002,40.553996 286.515997,39.855003 287.14,39.249 C287.764003,38.642997 288.534995,38.1570018 289.453,37.791 C290.371005,37.4249982 291.417994,37.242 292.594,37.242 C293.914007,37.242 295.098995,37.4519979 296.149,37.872 C297.199005,38.2920021 298.155996,38.9339957 299.02,39.798 L298.588,40.626 Z M307.336,49.284 L308.848,49.284 C309.076001,49.284 309.273999,49.2750001 309.442,49.257 C309.610001,49.2389999 309.762999,49.2060002 309.901,49.158 C310.039001,49.1099998 310.164999,49.0410004 310.279,48.951 C310.393001,48.8609996 310.515999,48.7500007 310.648,48.618 L320.926,38.052 C321.106001,37.847999 321.282999,37.7100004 321.457,37.638 C321.631001,37.5659996 321.837999,37.53 322.078,37.53 L323.554,37.53 L312.43,48.96 C312.201999,49.2000012 312.001001,49.3859993 311.827,49.518 C311.652999,49.6500007 311.458001,49.7579996 311.242,49.842 C311.494001,49.9140004 311.721999,50.0249993 311.926,50.175 C312.130001,50.3250008 312.333999,50.5199988 312.538,50.76 L324.256,63 L322.762,63 C322.449998,63 322.225001,62.9610004 322.087,62.883 C321.948999,62.8049996 321.814001,62.6820008 321.682,62.514 L310.918,51.498 C310.785999,51.3659993 310.663001,51.2520005 310.549,51.156 C310.434999,51.0599995 310.309001,50.9790003 310.171,50.913 C310.032999,50.8469997 309.871001,50.7990001 309.685,50.769 C309.498999,50.7389998 309.262001,50.724 308.974,50.724 L307.336,50.724 L307.336,63 L305.482,63 L305.482,37.53 L307.336,37.53 L307.336,49.284 Z M336.208,52.506 L336.208,63 L334.372,63 L334.372,52.506 L324.94,37.53 L326.56,37.53 C326.728001,37.53 326.865999,37.5689996 326.974,37.647 C327.082001,37.7250004 327.172,37.8359993 327.244,37.98 L334.534,49.68 C334.690001,49.9560014 334.833999,50.2229987 334.966,50.481 C335.098001,50.7390013 335.212,50.9939987 335.308,51.246 C335.404,50.9939987 335.511999,50.7390013 335.632,50.481 C335.752001,50.2229987 335.889999,49.9560014 336.046,49.68 L343.336,37.98 C343.396,37.8479993 343.482999,37.7400004 343.597,37.656 C343.711001,37.5719996 343.851999,37.53 344.02,37.53 L345.64,37.53 L336.208,52.506 Z" id="ADAMBECKOVSKY" fill="#000000" fill-rule="nonzero"></path>
            <g id="UX-DESIGNER" transform="translate(142.976000, 78.816000)" fill-rule="nonzero">
                <path d="M9.136,20.72 C10.0853381,20.72 10.9333296,20.5600016 11.68,20.24 C12.4266704,19.9199984 13.0586641,19.4720029 13.576,18.896 C14.0933359,18.3199971 14.4879986,17.632004 14.76,16.832 C15.0320014,16.031996 15.168,15.1520048 15.168,14.192 L15.168,0.256 L18.256,0.256 L18.256,14.192 C18.256,15.5146733 18.0453354,16.7413277 17.624,17.872 C17.2026646,19.0026723 16.6000039,19.9813292 15.816,20.808 C15.0319961,21.6346708 14.0746723,22.2826643 12.944,22.752 C11.8133277,23.2213357 10.544007,23.456 9.136,23.456 C7.72799296,23.456 6.45867232,23.2213357 5.328,22.752 C4.19732768,22.2826643 3.23733728,21.6346708 2.448,20.808 C1.65866272,19.9813292 1.05333544,19.0026723 0.632,17.872 C0.21066456,16.7413277 0,15.5146733 0,14.192 L0,0.256 L3.088,0.256 L3.088,14.176 C3.088,15.1360048 3.22399864,16.015996 3.496,16.816 C3.76800136,17.616004 4.16266408,18.3039971 4.68,18.88 C5.19733592,19.4560029 5.83199624,19.906665 6.584,20.232 C7.33600376,20.557335 8.18666192,20.72 9.136,20.72 Z M41.312,23.184 L38.24,23.184 C38.0053322,23.184 37.821334,23.1226673 37.688,23 C37.554666,22.8773327 37.4453338,22.7413341 37.36,22.592 L31.216,12.96 C31.1306662,13.2160013 31.0346672,13.4346658 30.928,13.616 L24.944,22.592 C24.8373328,22.7413341 24.7226673,22.8773327 24.6,23 C24.4773327,23.1226673 24.3093344,23.184 24.096,23.184 L21.216,23.184 L29.104,11.408 L21.536,0.256 L24.624,0.256 C24.8480011,0.256 25.0133328,0.29333296 25.12,0.368 C25.2266672,0.44266704 25.3226662,0.54933264 25.408,0.688 L31.392,9.872 C31.466667,9.64799888 31.5786659,9.402668 31.728,9.136 L37.376,0.752 C37.4613338,0.60266592 37.5626661,0.48266712 37.68,0.392 C37.7973339,0.30133288 37.9359992,0.256 38.096,0.256 L41.056,0.256 L33.456,11.264 L41.312,23.184 Z" id="UX" fill="#CCDC04"></path>
                <path d="M70.352,11.728 C70.352,13.4453419 70.0800027,15.007993 69.536,16.416 C68.9919973,17.824007 68.224005,19.0293283 67.232,20.032 C66.239995,21.0346717 65.048007,21.8106639 63.656,22.36 C62.263993,22.9093361 60.7253418,23.184 59.04,23.184 L50.48,23.184 L50.48,0.256 L59.04,0.256 C60.7253418,0.256 62.263993,0.53066392 63.656,1.08 C65.048007,1.62933608 66.239995,2.40799496 67.232,3.416 C68.224005,4.42400504 68.9919973,5.63199296 69.536,7.04 C70.0800027,8.44800704 70.352,10.0106581 70.352,11.728 Z M67.168,11.728 C67.168,10.319993 66.9760019,9.06133888 66.592,7.952 C66.2079981,6.84266112 65.6640035,5.90400384 64.96,5.136 C64.2559965,4.36799616 63.4026717,3.78133536 62.4,3.376 C61.3973283,2.97066464 60.2773395,2.768 59.04,2.768 L53.584,2.768 L53.584,20.672 L59.04,20.672 C60.2773395,20.672 61.3973283,20.4693354 62.4,20.064 C63.4026717,19.6586646 64.2559965,19.0746705 64.96,18.312 C65.6640035,17.5493295 66.2079981,16.6133389 66.592,15.504 C66.9760019,14.3946611 67.168,13.136007 67.168,11.728 Z M88.96,20.656 L88.944,23.184 L74.816,23.184 L74.816,0.256 L88.944,0.256 L88.944,2.784 L77.92,2.784 L77.92,10.4 L86.848,10.4 L86.848,12.832 L77.92,12.832 L77.92,20.656 L88.96,20.656 Z M105.024,3.84 C104.928,4 104.824001,4.1199996 104.712,4.2 C104.599999,4.2800004 104.464001,4.32 104.304,4.32 C104.122666,4.32 103.909335,4.22933424 103.664,4.048 C103.418665,3.86666576 103.112002,3.66666776 102.744,3.448 C102.375998,3.22933224 101.933336,3.02933424 101.416,2.848 C100.898664,2.66666576 100.272004,2.576 99.536,2.576 C98.8426632,2.576 98.2320026,2.6693324 97.704,2.856 C97.1759974,3.0426676 96.7333351,3.2959984 96.376,3.616 C96.0186649,3.9360016 95.7493342,4.31199784 95.568,4.744 C95.3866658,5.17600216 95.296,5.64266416 95.296,6.144 C95.296,6.7840032 95.4533318,7.31466456 95.768,7.736 C96.0826682,8.15733544 96.4986641,8.51733184 97.016,8.816 C97.5333359,9.11466816 98.1199967,9.37333224 98.776,9.592 L100.109333,10.0399997 C100.33511,10.116444 100.562666,10.1937774 100.792,10.272 C101.480003,10.5066678 102.151997,10.7706652 102.808,11.064 C103.464003,11.3573348 104.050664,11.7279978 104.568,12.176 C105.085336,12.6240022 105.501332,13.1733301 105.816,13.824 C106.130668,14.4746699 106.288,15.2746619 106.288,16.224 C106.288,17.2266717 106.117335,18.1679956 105.776,19.048 C105.434665,19.9280044 104.936003,20.6933301 104.28,21.344 C103.623997,21.9946699 102.818671,22.5066648 101.864,22.88 C100.909329,23.2533352 99.8240061,23.44 98.608,23.44 C97.1146592,23.44 95.7600061,23.1706694 94.544,22.632 C93.3279939,22.0933306 92.2880043,21.3653379 91.424,20.448 L92.32,18.976 C92.4053338,18.8586661 92.5093327,18.7600004 92.632,18.68 C92.7546673,18.5999996 92.8906659,18.56 93.04,18.56 C93.1786674,18.56 93.3359991,18.6159994 93.512,18.728 C93.6440007,18.8120004 93.7894997,18.9124997 93.9484997,19.0294997 L94.112,19.152 C94.3360011,19.3226675 94.5919986,19.5093323 94.88,19.712 C95.1680014,19.9146677 95.4959982,20.1013325 95.864,20.272 C96.2320018,20.4426675 96.6506643,20.5839994 97.12,20.696 C97.5893357,20.8080006 98.1173304,20.864 98.704,20.864 C99.4400037,20.864 100.095997,20.7626677 100.672,20.56 C101.248003,20.3573323 101.735998,20.0720018 102.136,19.704 C102.536002,19.3359982 102.842666,18.8960026 103.056,18.384 C103.269334,17.8719974 103.376,17.3013365 103.376,16.672 C103.376,15.9786632 103.218668,15.4106689 102.904,14.968 C102.589332,14.5253311 102.176003,14.1546682 101.664,13.856 C101.151997,13.5573318 100.565337,13.304001 99.904,13.096 L97.888,12.456 L97.888,12.456 C97.2053299,12.2373322 96.5333366,11.9840014 95.872,11.696 C95.2106634,11.4079986 94.6240026,11.034669 94.112,10.576 C93.5999974,10.117331 93.1866682,9.54400344 92.872,8.856 C92.5573318,8.16799656 92.4,7.3173384 92.4,6.304 C92.4,5.49332928 92.5573318,4.70933712 92.872,3.952 C93.1866682,3.19466288 93.6453303,2.5226696 94.248,1.936 C94.8506697,1.3493304 95.5919956,0.88000176 96.472,0.528 C97.3520044,0.17599824 98.362661,-2.84217094e-14 99.504,-2.84217094e-14 C100.784006,-2.84217094e-14 101.949328,0.20266464 103,0.608 C104.050672,1.01333536 104.975996,1.59999616 105.776,2.368 L105.024,3.84 Z M113.76,23.184 L110.656,23.184 L110.656,0.256 L113.76,0.256 L113.76,23.184 Z M138.24,12.16 L138.24,20.96 C137.087994,21.7920042 135.858673,22.4133313 134.552,22.824 C133.245327,23.2346687 131.813341,23.44 130.256,23.44 C128.410657,23.44 126.746674,23.1546695 125.264,22.584 C123.781326,22.0133305 122.514672,21.2133385 121.464,20.184 C120.413328,19.1546615 119.605336,17.9200072 119.04,16.48 C118.474664,15.0399928 118.192,13.4560086 118.192,11.728 C118.192,9.97865792 118.466664,8.3840072 119.016,6.944 C119.565336,5.5039928 120.346662,4.26933848 121.36,3.24 C122.373338,2.21066152 123.605326,1.41333616 125.056,0.848 C126.506674,0.28266384 128.127991,-2.84217094e-14 129.92,-2.84217094e-14 C130.826671,-2.84217094e-14 131.669329,0.066666 132.448,0.2 C133.226671,0.333334 133.946663,0.52533208 134.608,0.776 C135.269337,1.02666792 135.882664,1.33066488 136.448,1.688 C137.013336,2.04533512 137.541331,2.44799776 138.032,2.896 L137.152,4.304 C137.013333,4.5173344 136.834668,4.65333304 136.616,4.712 C136.397332,4.77066696 136.154668,4.7200008 135.888,4.56 L135.476,4.31200012 C135.329334,4.22133368 135.173334,4.1226672 135.008,4.016 C134.677332,3.8026656 134.274669,3.59733432 133.8,3.4 C133.325331,3.20266568 132.765337,3.03466736 132.12,2.896 C131.474663,2.75733264 130.709338,2.688 129.824,2.688 C128.533327,2.688 127.365339,2.89866456 126.32,3.32 C125.274661,3.74133544 124.384004,4.34399608 123.648,5.128 C122.911996,5.91200392 122.346669,6.86132776 121.952,7.976 C121.557331,9.09067224 121.36,10.3413264 121.36,11.728 C121.36,13.1680072 121.565331,14.4559943 121.976,15.592 C122.386669,16.7280057 122.97333,17.6933294 123.736,18.488 C124.49867,19.2826706 125.423995,19.8879979 126.512,20.304 C127.600005,20.7200021 128.821327,20.928 130.176,20.928 C131.242672,20.928 132.189329,20.8080012 133.016,20.568 C133.842671,20.3279988 134.650663,19.9946688 135.44,19.568 L135.44,14.528 L131.872,14.528 C131.669332,14.528 131.506667,14.4693339 131.384,14.352 C131.261333,14.2346661 131.2,14.0906675 131.2,13.92 L131.2,12.16 L138.24,12.16 Z M161.568,0.256 L161.568,23.184 L160.016,23.184 C159.770665,23.184 159.565334,23.1413338 159.4,23.056 C159.234666,22.9706662 159.072001,22.8266677 158.912,22.624 L145.648,5.344 C145.669333,5.610668 145.685333,5.87199872 145.696,6.128 L145.710222,6.61866645 C145.711407,6.69688853 145.712,6.77333296 145.712,6.848 L145.712,23.184 L142.992,23.184 L142.992,0.256 L144.592,0.256 C144.730667,0.256 144.848,0.26399992 144.944,0.28 C145.04,0.29600008 145.125333,0.32266648 145.2,0.36 C145.274667,0.39733352 145.349333,0.45066632 145.424,0.52 C145.498667,0.58933368 145.578666,0.6773328 145.664,0.784 L158.928,18.048 C158.906667,17.7706653 158.888,17.5013346 158.872,17.24 C158.856,16.9786654 158.848,16.7306678 158.848,16.496 L158.848,0.256 L161.568,0.256 Z M181.568,20.656 L181.552,23.184 L167.424,23.184 L167.424,0.256 L181.552,0.256 L181.552,2.784 L170.528,2.784 L170.528,10.4 L179.456,10.4 L179.456,12.832 L170.528,12.832 L170.528,20.656 L181.568,20.656 Z M192.256,11.36 C193.152004,11.36 193.943997,11.2506678 194.632,11.032 C195.320003,10.8133322 195.895998,10.504002 196.36,10.104 C196.824002,9.704 197.173332,9.22666944 197.408,8.672 C197.642668,8.11733056 197.76,7.50400336 197.76,6.832 C197.76,5.46665984 197.312004,4.4373368 196.416,3.744 C195.519996,3.0506632 194.176009,2.704 192.384,2.704 L188.992,2.704 L188.992,11.36 L192.256,11.36 Z M202.848,23.184 L200.096,23.184 C199.530664,23.184 199.114668,22.9653355 198.848,22.528 L192.896,14.336 C192.714666,14.0799987 192.520001,13.8960006 192.312,13.784 C192.103999,13.6719994 191.781336,13.616 191.344,13.616 L188.992,13.616 L188.992,23.184 L185.904,23.184 L185.904,0.256 L192.384,0.256 C193.834674,0.256 195.087995,0.4026652 196.144,0.696 C197.200005,0.9893348 198.071997,1.41333056 198.76,1.968 C199.448003,2.52266944 199.957332,3.19199608 200.288,3.976 C200.618668,4.76000392 200.784,5.63732848 200.784,6.608 C200.784,7.41867072 200.656001,8.17599648 200.4,8.88 C200.143999,9.58400352 199.773336,10.2159972 199.288,10.776 C198.802664,11.3360028 198.21067,11.8133314 197.512,12.208 C196.81333,12.6026686 196.021338,12.9013323 195.136,13.104 C195.530669,13.3280011 195.871999,13.6533312 196.16,14.08 L202.848,23.184 Z" id="DESIGNER" fill="#000000"></path>
            </g>
            <path d="M103,-6.123234e-17 L103,30 L101,30 L101,2 L1.999,2 L2,100 L101,100 L101,72 L103,72 L103,102 L3.10862447e-15,102 L-3.10862447e-15,6.123234e-17 L103,-6.123234e-17 Z" id="Combined-Shape" fill="#000000"></path>
        </g>
    </g>
</svg>